<svg xmlns="http://www.w3.org/2000/svg" xmlns:xlink="http://www.w3.org/1999/xlink" style="margin:auto;background:#d4eeff;display:block;z-index:1;position:relative" width="1536" height="750" preserveAspectRatio="xMidYMid" viewBox="0 0 1536 750">
<g transform="translate(768,375) scale(1,1) translate(-768,-375)"><g transform="translate(-100 430.9714651413542) rotate(0)">
  <animateTransform attributeName="transform" type="translate" keyTimes="0;1" values="-100 430.9714651413542;1536 430.9714651413542" dur="1000s" repeatCount="indefinite" begin="-484.44552085313376s"></animateTransform>
  <path d="M84.717,33.597c0.791-2.503,1.186-5.138,1.186-7.773C85.903,11.594,74.308,0,60.079,0 c-9.881,0-18.445,5.534-22.793,13.702c-1.581-0.527-3.426-0.791-5.138-0.791c-9.486,0-17.128,7.642-17.128,17.128 c0,1.186,0.132,2.372,0.395,3.426C6.719,34.783,0,42.424,0,51.515C0,61.66,8.169,69.829,18.314,69.829h63.373 C91.831,69.829,100,61.66,100,51.515C99.868,42.556,93.281,35.046,84.717,33.597z" fill="#bddeff" transform="scale(1.1)"></path>
</g><g transform="translate(-100 741.9701823343288) rotate(0)">
  <animateTransform attributeName="transform" type="translate" keyTimes="0;1" values="-100 741.9701823343288;1536 741.9701823343288" dur="1000s" repeatCount="indefinite" begin="-541.1218533417823s"></animateTransform>
  <path d="M84.717,33.597c0.791-2.503,1.186-5.138,1.186-7.773C85.903,11.594,74.308,0,60.079,0 c-9.881,0-18.445,5.534-22.793,13.702c-1.581-0.527-3.426-0.791-5.138-0.791c-9.486,0-17.128,7.642-17.128,17.128 c0,1.186,0.132,2.372,0.395,3.426C6.719,34.783,0,42.424,0,51.515C0,61.66,8.169,69.829,18.314,69.829h63.373 C91.831,69.829,100,61.66,100,51.515C99.868,42.556,93.281,35.046,84.717,33.597z" fill="#bddeff" transform="scale(1.1)"></path>
</g><g transform="translate(-100 660.2220863391811) rotate(0)">
  <animateTransform attributeName="transform" type="translate" keyTimes="0;1" values="-100 660.2220863391811;1536 660.2220863391811" dur="500s" repeatCount="indefinite" begin="-126.33002194735865s"></animateTransform>
  <path d="M84.717,33.597c0.791-2.503,1.186-5.138,1.186-7.773C85.903,11.594,74.308,0,60.079,0 c-9.881,0-18.445,5.534-22.793,13.702c-1.581-0.527-3.426-0.791-5.138-0.791c-9.486,0-17.128,7.642-17.128,17.128 c0,1.186,0.132,2.372,0.395,3.426C6.719,34.783,0,42.424,0,51.515C0,61.66,8.169,69.829,18.314,69.829h63.373 C91.831,69.829,100,61.66,100,51.515C99.868,42.556,93.281,35.046,84.717,33.597z" fill="#ffffff" transform="scale(1.4)"></path>
</g><g transform="translate(-100 49.893927521504956) rotate(0)">
  <animateTransform attributeName="transform" type="translate" keyTimes="0;1" values="-100 49.893927521504956;1536 49.893927521504956" dur="500s" repeatCount="indefinite" begin="-406.8743334729301s"></animateTransform>
  <path d="M84.717,33.597c0.791-2.503,1.186-5.138,1.186-7.773C85.903,11.594,74.308,0,60.079,0 c-9.881,0-18.445,5.534-22.793,13.702c-1.581-0.527-3.426-0.791-5.138-0.791c-9.486,0-17.128,7.642-17.128,17.128 c0,1.186,0.132,2.372,0.395,3.426C6.719,34.783,0,42.424,0,51.515C0,61.66,8.169,69.829,18.314,69.829h63.373 C91.831,69.829,100,61.66,100,51.515C99.868,42.556,93.281,35.046,84.717,33.597z" fill="#ffffff" transform="scale(1.4)"></path>
</g><g transform="translate(-100 671.7655327893633) rotate(0)">
  <animateTransform attributeName="transform" type="translate" keyTimes="0;1" values="-100 671.7655327893633;1536 671.7655327893633" dur="500s" repeatCount="indefinite" begin="-875.8187750573956s"></animateTransform>
  <path d="M84.717,33.597c0.791-2.503,1.186-5.138,1.186-7.773C85.903,11.594,74.308,0,60.079,0 c-9.881,0-18.445,5.534-22.793,13.702c-1.581-0.527-3.426-0.791-5.138-0.791c-9.486,0-17.128,7.642-17.128,17.128 c0,1.186,0.132,2.372,0.395,3.426C6.719,34.783,0,42.424,0,51.515C0,61.66,8.169,69.829,18.314,69.829h63.373 C91.831,69.829,100,61.66,100,51.515C99.868,42.556,93.281,35.046,84.717,33.597z" fill="#ffffff" transform="scale(1.4)"></path>
</g><g transform="translate(-100 96.59666251251132) rotate(0)">
  <animateTransform attributeName="transform" type="translate" keyTimes="0;1" values="-100 96.59666251251132;1536 96.59666251251132" dur="333.3333333333333s" repeatCount="indefinite" begin="-167.26444442776622s"></animateTransform>
  <path d="M84.717,33.597c0.791-2.503,1.186-5.138,1.186-7.773C85.903,11.594,74.308,0,60.079,0 c-9.881,0-18.445,5.534-22.793,13.702c-1.581-0.527-3.426-0.791-5.138-0.791c-9.486,0-17.128,7.642-17.128,17.128 c0,1.186,0.132,2.372,0.395,3.426C6.719,34.783,0,42.424,0,51.515C0,61.66,8.169,69.829,18.314,69.829h63.373 C91.831,69.829,100,61.66,100,51.515C99.868,42.556,93.281,35.046,84.717,33.597z" fill="#f1f2f3" transform="scale(1.7)"></path>
</g><g transform="translate(-100 429.71154535701055) rotate(0)">
  <animateTransform attributeName="transform" type="translate" keyTimes="0;1" values="-100 429.71154535701055;1536 429.71154535701055" dur="333.3333333333333s" repeatCount="indefinite" begin="-154.18048547632557s"></animateTransform>
  <path d="M84.717,33.597c0.791-2.503,1.186-5.138,1.186-7.773C85.903,11.594,74.308,0,60.079,0 c-9.881,0-18.445,5.534-22.793,13.702c-1.581-0.527-3.426-0.791-5.138-0.791c-9.486,0-17.128,7.642-17.128,17.128 c0,1.186,0.132,2.372,0.395,3.426C6.719,34.783,0,42.424,0,51.515C0,61.66,8.169,69.829,18.314,69.829h63.373 C91.831,69.829,100,61.66,100,51.515C99.868,42.556,93.281,35.046,84.717,33.597z" fill="#f1f2f3" transform="scale(1.7)"></path>
</g><g transform="translate(-100 531.9590844514449) rotate(0)">
  <animateTransform attributeName="transform" type="translate" keyTimes="0;1" values="-100 531.9590844514449;1536 531.9590844514449" dur="250s" repeatCount="indefinite" begin="-695.5588834007025s"></animateTransform>
  <path d="M84.717,33.597c0.791-2.503,1.186-5.138,1.186-7.773C85.903,11.594,74.308,0,60.079,0 c-9.881,0-18.445,5.534-22.793,13.702c-1.581-0.527-3.426-0.791-5.138-0.791c-9.486,0-17.128,7.642-17.128,17.128 c0,1.186,0.132,2.372,0.395,3.426C6.719,34.783,0,42.424,0,51.515C0,61.66,8.169,69.829,18.314,69.829h63.373 C91.831,69.829,100,61.66,100,51.515C99.868,42.556,93.281,35.046,84.717,33.597z" fill="#bddeff" transform="scale(2)"></path>
</g><g transform="translate(-100 177.17764977363464) rotate(0)">
  <animateTransform attributeName="transform" type="translate" keyTimes="0;1" values="-100 177.17764977363464;1536 177.17764977363464" dur="250s" repeatCount="indefinite" begin="-680.5163728951698s"></animateTransform>
  <path d="M84.717,33.597c0.791-2.503,1.186-5.138,1.186-7.773C85.903,11.594,74.308,0,60.079,0 c-9.881,0-18.445,5.534-22.793,13.702c-1.581-0.527-3.426-0.791-5.138-0.791c-9.486,0-17.128,7.642-17.128,17.128 c0,1.186,0.132,2.372,0.395,3.426C6.719,34.783,0,42.424,0,51.515C0,61.66,8.169,69.829,18.314,69.829h63.373 C91.831,69.829,100,61.66,100,51.515C99.868,42.556,93.281,35.046,84.717,33.597z" fill="#bddeff" transform="scale(2)"></path>
</g><g transform="translate(-100 661.2418245845494) rotate(0)">
  <animateTransform attributeName="transform" type="translate" keyTimes="0;1" values="-100 661.2418245845494;1536 661.2418245845494" dur="250s" repeatCount="indefinite" begin="-520.1379974860414s"></animateTransform>
  <path d="M84.717,33.597c0.791-2.503,1.186-5.138,1.186-7.773C85.903,11.594,74.308,0,60.079,0 c-9.881,0-18.445,5.534-22.793,13.702c-1.581-0.527-3.426-0.791-5.138-0.791c-9.486,0-17.128,7.642-17.128,17.128 c0,1.186,0.132,2.372,0.395,3.426C6.719,34.783,0,42.424,0,51.515C0,61.66,8.169,69.829,18.314,69.829h63.373 C91.831,69.829,100,61.66,100,51.515C99.868,42.556,93.281,35.046,84.717,33.597z" fill="#bddeff" transform="scale(2)"></path>
</g></g>
</svg>