<svg id="Layer_1" data-name="Layer 1" xmlns="http://www.w3.org/2000/svg" viewBox="0 0 607 608"><defs><style>.cls-1{fill:#b0d8ff;}.cls-2{fill:#106812;}.cls-3{fill:#003580;}.cls-4{fill:#a7cf2f;}.cls-5{fill:#6cb119;}.cls-6{fill:#4c76b2;}.cls-7{fill:#fff;}.cls-8,.cls-9{fill:none;stroke:#000;}.cls-14,.cls-8,.cls-9{stroke-miterlimit:10;}.cls-9{stroke-width:5px;}.cls-10{fill:#c17d11;}.cls-11{fill:#8f5902;}.cls-12{fill:#7da81d;}.cls-13{fill:#469315;}.cls-14{fill:#00d41d;stroke:#009500;stroke-width:2px;}.cls-15{fill:#d2ab00;}</style></defs><polygon class="cls-1" points="438.75 154.7 521.3 113.69 604 154.98 604 155.89 602.66 155.89 519.84 197.31 438.48 156.3 438.48 154.84 438.75 154.7"/><polygon class="cls-2" points="604 372.39 603.91 454.82 521.11 495.98 519.85 495.35 520.37 494.32 522.03 413.53 603.17 372.33 603.31 372.05 604 372.39"/><polygon class="cls-3" points="604 155.89 603.91 237.41 522.26 277.98 521.16 278.53 521.11 278.55 519.84 277.92 519.84 197.31 602.66 155.89 604 155.89"/><polygon class="cls-4" points="603.31 372.05 603.17 372.33 522.03 413.53 439.9 372.66 439.9 371.55 521.27 331.12 521.3 331.11 522.12 331.52 603.31 372.05"/><polygon class="cls-5" points="438.39 454.5 438.39 451.23 438.48 374.1 439.9 373.39 439.9 372.66 522.03 413.53 520.37 494.32 519.85 495.35 438.39 454.69 438.39 454.51 438.39 454.5"/><polygon class="cls-6" points="519.84 197.31 519.84 277.92 440.05 238.11 440.05 236.38 438.39 235.55 438.48 156.3 519.84 197.31"/><polygon class="cls-7" points="440.05 236.38 440.05 238.11 438.39 237.28 438.39 235.55 440.05 236.38"/><polygon class="cls-7" points="440.05 238.11 439.9 371.55 438.48 372.26 438.48 374.1 304.64 441.1 302.69 440.13 301.33 440.81 168.46 373.98 168.46 372.05 166.8 371.22 166.95 237.13 168.37 236.42 168.37 235.42 303.04 168.01 304.16 168.57 304.69 168.3 438.39 235.55 438.39 237.28 440.05 238.11"/><polygon class="cls-7" points="439.9 372.66 439.9 373.39 438.48 374.1 438.48 372.26 439.9 371.55 439.9 372.66"/><polygon class="cls-2" points="386.81 127.5 304.69 168.3 303.57 167.74 303.43 166.93 305.08 86.14 386.22 44.92 386.36 44.64 387.05 44.99 386.96 124.77 386.96 127.43 386.81 127.5"/><polygon class="cls-4" points="386.36 44.64 386.22 44.92 305.08 86.14 222.28 44.92 222.11 44.57 304.35 3.71 386.36 44.64"/><polygon class="cls-3" points="385.39 481.93 385.3 563.84 302.5 605 301.58 604.53 302.09 603.51 302.09 522.01 384.33 480.88 385.39 481.41 385.39 481.93"/><polygon class="cls-1" points="384.33 480.88 302.09 522.01 220.6 480.93 301.33 440.81 303.28 441.78 304.64 441.1 384.33 480.88"/><polygon class="cls-5" points="221.57 127.35 221.45 127.28 221.45 123.25 221.55 44.85 222.11 44.57 222.28 44.92 305.08 86.14 303.43 166.93 303.57 167.74 303.04 168.01 221.57 127.35"/><polygon class="cls-7" points="304.69 168.3 304.16 168.57 303.04 168.01 303.57 167.74 304.69 168.3"/><polygon class="cls-7" points="304.64 441.1 303.28 441.78 301.33 440.81 302.69 440.13 304.64 441.1"/><polygon class="cls-6" points="219.89 481.39 219.89 481.28 220.6 480.93 302.09 522.01 302.09 603.51 301.58 604.53 219.8 563.71 219.89 481.39"/><polygon class="cls-7" points="166.8 372.39 166.8 371.22 168.46 372.05 168.46 373.98 166.8 373.15 166.8 372.39"/><polygon class="cls-3" points="168.46 153.99 168.37 235.42 166.95 236.13 166.95 237.13 85.67 276.43 85.67 195.31 168.38 153.95 168.42 153.97 168.46 153.99"/><polygon class="cls-2" points="168.37 454.46 168.37 454.48 85.55 495.62 84.31 495 84.82 493.97 86.47 413.19 166.8 372.39 166.8 373.15 168.46 373.98 168.37 451.39 168.37 454.46"/><polygon class="cls-1" points="85.74 112.7 168.38 153.95 85.67 195.31 3.2 153.73 85.74 112.7"/><polygon class="cls-7" points="168.37 235.42 168.37 236.42 166.95 237.13 166.95 236.13 168.37 235.42"/><polygon class="cls-6" points="85.67 276.43 166.95 237.13 85.55 277.58 85.07 277.34 84.86 277.23 84.86 276.81 85.67 276.43"/><polygon class="cls-4" points="85.67 330.8 85.74 330.76 166.8 371.22 166.8 372.39 86.47 413.19 3.68 371.98 3.5 371.62 84.94 331.16 85.67 330.8"/><polygon class="cls-5" points="86.47 413.19 84.82 493.97 84.31 495 2.85 454.34 2.94 371.9 3.5 371.62 3.68 371.98 86.47 413.19"/><polygon class="cls-6" points="85.67 195.31 85.67 276.43 84.86 276.81 84.86 277.23 2.85 236.29 2.94 153.86 3.2 153.73 85.67 195.31"/><polyline class="cls-8" points="166.95 237.13 85.55 277.58 85.07 277.34"/><polyline class="cls-8" points="386.96 127.43 386.81 127.5 304.69 168.3"/><polyline class="cls-8" points="303.04 168.01 221.57 127.35 221.45 127.28"/><line class="cls-8" x1="221.94" y1="127.16" x2="259.34" y2="109.79"/><line class="cls-8" x1="168.46" y1="153.99" x2="168.37" y2="235.42"/><polyline class="cls-8" points="166.95 237.13 85.67 276.43 84.86 276.81"/><line class="cls-8" x1="440.05" y1="238.11" x2="439.9" y2="371.55"/><polyline class="cls-8" points="166.8 371.22 166.95 237.13 166.95 236.13 168.37 235.42 303.04 168.01 303.57 167.74 304.69 168.3 438.39 235.55"/><line class="cls-8" x1="301.33" y1="440.81" x2="168.46" y2="373.98"/><line class="cls-8" x1="438.48" y1="374.1" x2="304.64" y2="441.1"/><polyline class="cls-8" points="438.39 454.5 438.39 451.23 438.48 374.1 438.48 372.26 439.9 371.55 521.27 331.12 521.3 331.11"/><line class="cls-8" x1="438.39" y1="454.69" x2="438.39" y2="454.52"/><line class="cls-8" x1="439.22" y1="372.33" x2="439.9" y2="372.66"/><polyline class="cls-8" points="85.74 330.76 166.8 371.22 168.46 372.05 168.46 373.98 168.37 451.39 168.37 454.46 168.37 454.48"/><line class="cls-8" x1="167.63" y1="371.98" x2="166.8" y2="372.39"/><polyline class="cls-8" points="521.11 278.55 519.84 277.92 440.05 238.11 438.39 237.28 438.39 235.55 438.48 156.3 438.48 154.84"/><polyline class="cls-8" points="219.89 481.28 220.6 480.93 301.33 440.81 302.69 440.13 304.64 441.1 384.33 480.88 385.39 481.41"/><line class="cls-8" x1="438.5" y1="454.45" x2="475.76" y2="435.82"/><polyline class="cls-8" points="438.35 454.53 438.39 454.51 438.39 454.5"/><line class="cls-8" x1="521.18" y1="371.02" x2="521.18" y2="332.36"/><line class="cls-8" x1="85.67" y1="372.35" x2="85.67" y2="331.16"/><polyline class="cls-8" points="387.14 127.67 386.81 127.5 354.19 111.13"/><polyline class="cls-8" points="168.5 454.53 168.37 454.46 132.43 435.82"/><polyline class="cls-9" points="221.45 127.28 221.45 123.25 221.55 44.85 222.11 44.57 304.35 3.71 386.36 44.64 387.05 44.99 386.96 124.77 386.96 127.43"/><polyline class="cls-9" points="168.42 153.97 221.57 127.35 221.94 127.16"/><polyline class="cls-9" points="85.07 277.34 84.86 277.23 2.85 236.29 2.94 153.86 3.2 153.73 85.74 112.7 168.38 153.95 168.42 153.97 168.46 153.99"/><polyline class="cls-9" points="521.3 331.11 522.12 331.52 603.31 372.05 604 372.39 603.91 454.82 521.11 495.98 519.85 495.35 438.39 454.69"/><polyline class="cls-9" points="168.37 454.48 85.55 495.62 84.31 495 2.85 454.34 2.94 371.9 3.5 371.62 84.94 331.16 85.67 330.8 85.74 330.76"/><polyline class="cls-9" points="438.48 154.84 438.75 154.7 521.3 113.69 604 154.98 604 155.89 603.91 237.41 522.26 277.98 521.16 278.53 521.11 278.55"/><polyline class="cls-9" points="385.39 481.41 385.39 481.93 385.3 563.84 302.5 605 301.58 604.53 219.8 563.71 219.89 481.39 219.89 481.28"/><polyline class="cls-9" points="385.15 482.07 385.39 481.93 385.54 481.85 438.35 454.53 438.39 454.5 438.5 454.45"/><line class="cls-9" x1="521.18" y1="330.93" x2="521.31" y2="278.82"/><polyline class="cls-9" points="85.67 331.16 85.67 330.8 84.86 277.23 84.86 276.81"/><polyline class="cls-9" points="439.26 155 438.75 154.7 387.14 127.67"/><polyline class="cls-9" points="220.63 481.81 219.89 481.39 168.5 454.53"/><g id="layer1"><g id="g9775"><path id="path9777" class="cls-10" d="M301.83,304.21,166.21,372,303.1,440.5l135.62-67.82L301.83,304.21Z"/><path id="path9779" class="cls-11" d="M182,379.94s37.27-15.46,39.26-16.66,24.38-18.38,24.38-18.38l30-13.59,15.59-5.19,26.44-14,18.08,9-27.19,11.17-.15,3L281.22,348.9l-36,21.18-24,11.19L200.11,389l-18.08-9Z"/><path id="path9781" class="cls-11" d="M231.32,404.58s35.84-15.62,37.86-16.82,26.75-7.59,26.75-7.59l48-34.36,15.57-8,7.39-1.08,15.84,7.93L356.27,359.8l-27.18,13.58L292.41,392l-23.23,13.73-22.13,6.69Z"/><path id="path9783" class="cls-11" d="M269.74,423.89s36.91-14.36,38.92-15.56,26.76-7.57,26.76-7.57l47.95-34.38,15.57-8,6.22-2.54,20.4,10.22-29.8,14.29L368.57,394l-36,21.18-23.95,11.19-18.58,7.73-20.34-10.17Z"/></g></g><path class="cls-12" d="M211.79,379.53a1.5,1.5,0,0,1-1.64,1.31h0a1.51,1.51,0,0,1-1.65-1.31V267.29a1.51,1.51,0,0,1,1.65-1.31h0a1.5,1.5,0,0,1,1.64,1.31Z"/><ellipse class="cls-12" cx="210.14" cy="383.22" rx="6.48" ry="5.17"/><path class="cls-12" d="M210.21,237.4c-6.84,2.68-12,14.72-12,20.47s5.18,10.52,12,11.54Z"/><path class="cls-13" d="M210.09,237.4c6.84,2.68,12,14.72,12,20.47s-5.18,10.52-12,11.54Z"/><path class="cls-12" d="M240.43,273.29c-7.22-2-21.56,3.64-26.66,7.7s-5.66,10.36-1.73,14.94Z"/><path class="cls-13" d="M240.35,273.23c2.45,5.75-4.57,17.19-9.65,21.25s-13,4.52-18.73,1.39Z"/><path class="cls-12" d="M240.43,299.87c-7.22-2-21.56,3.64-26.66,7.7s-5.66,10.37-1.73,14.94Z"/><path class="cls-13" d="M240.35,299.81c2.45,5.75-4.57,17.19-9.65,21.26s-13,4.51-18.73,1.38Z"/><path class="cls-12" d="M240.43,326.45c-7.22-2-21.56,3.64-26.66,7.7s-5.66,10.36-1.73,14.94Z"/><path class="cls-13" d="M240.35,326.39c2.45,5.75-4.57,17.19-9.65,21.26s-13,4.51-18.73,1.38Z"/><path class="cls-12" d="M235.37,357.05c-5.93-1.61-17.73,3-21.91,6.34s-4.66,8.52-1.42,12.28Z"/><path class="cls-13" d="M235.31,357c2,4.72-3.75,14.13-7.94,17.47a14.51,14.51,0,0,1-15.4,1.14Z"/><path class="cls-12" d="M179.86,273.29c7.22-2,21.56,3.64,26.66,7.7s5.66,10.36,1.73,14.94Z"/><path class="cls-13" d="M180,273.23c-2.46,5.75,4.56,17.19,9.65,21.25s13,4.52,18.72,1.39Z"/><path class="cls-12" d="M179.86,299.87c7.22-2,21.56,3.64,26.66,7.7s5.66,10.37,1.73,14.94Z"/><path class="cls-13" d="M180,299.81c-2.46,5.75,4.56,17.19,9.65,21.26s13,4.51,18.72,1.38Z"/><path class="cls-12" d="M179.86,326.45c7.22-2,21.56,3.64,26.66,7.7s5.66,10.36,1.73,14.94Z"/><path class="cls-13" d="M180,326.39c-2.46,5.75,4.56,17.19,9.65,21.26s13,4.51,18.72,1.38Z"/><path class="cls-12" d="M184.92,357.05c5.93-1.61,17.73,3,21.91,6.34s4.66,8.52,1.42,12.28Z"/><path class="cls-13" d="M207.82,374.82a13.8,13.8,0,0,1-14.72-1.09c-4-3.21-9.51-12.25-7.58-16.79Z"/><path class="cls-12" d="M268.13,412a1.51,1.51,0,0,1-1.65,1.31h0a1.51,1.51,0,0,1-1.65-1.31V299.77a1.51,1.51,0,0,1,1.65-1.31h0a1.51,1.51,0,0,1,1.65,1.31Z"/><ellipse class="cls-12" cx="266.48" cy="415.69" rx="6.48" ry="5.17"/><path class="cls-12" d="M266.54,269.88c-6.84,2.68-12,14.72-12,20.47s5.18,10.52,12,11.54Z"/><path class="cls-13" d="M266.42,269.88c6.84,2.68,12,14.72,12,20.47s-5.19,10.52-12,11.54Z"/><path class="cls-12" d="M296.76,305.77c-7.22-2-21.56,3.64-26.66,7.7s-5.66,10.36-1.72,14.94Z"/><path class="cls-13" d="M296.68,305.71c2.45,5.75-4.56,17.19-9.65,21.25s-13,4.52-18.73,1.38Z"/><path class="cls-12" d="M296.76,332.35c-7.22-2-21.56,3.64-26.66,7.7s-5.66,10.36-1.72,14.93Z"/><path class="cls-13" d="M296.68,332.29c2.45,5.75-4.56,17.19-9.65,21.25s-13,4.52-18.73,1.38Z"/><path class="cls-12" d="M296.76,358.93c-7.22-2-21.56,3.64-26.66,7.7s-5.66,10.36-1.72,14.93Z"/><path class="cls-13" d="M296.68,358.87c2.45,5.75-4.56,17.19-9.65,21.26s-13,4.51-18.73,1.38Z"/><path class="cls-12" d="M291.7,389.53c-5.92-1.61-17.72,3-21.9,6.33s-4.66,8.52-1.43,12.28Z"/><path class="cls-13" d="M291.64,389.48c2,4.73-3.75,14.14-7.94,17.48a14.49,14.49,0,0,1-15.4,1.13Z"/><path class="cls-12" d="M236.2,305.77c7.21-2,21.55,3.64,26.65,7.7s5.66,10.36,1.73,14.94Z"/><path class="cls-13" d="M236.28,305.71c-2.46,5.75,4.56,17.19,9.65,21.25s13,4.52,18.73,1.38Z"/><path class="cls-12" d="M236.2,332.35c7.21-2,21.55,3.64,26.65,7.7s5.66,10.36,1.73,14.93Z"/><path class="cls-13" d="M236.28,332.29c-2.46,5.75,4.56,17.19,9.65,21.25s13,4.52,18.73,1.38Z"/><path class="cls-12" d="M236.2,358.93c7.21-2,21.55,3.64,26.65,7.7s5.66,10.36,1.73,14.93Z"/><path class="cls-13" d="M236.28,358.87c-2.46,5.75,4.56,17.19,9.65,21.26s13,4.51,18.73,1.38Z"/><path class="cls-12" d="M241.25,389.53c5.93-1.61,17.73,3,21.92,6.33s4.65,8.52,1.42,12.28Z"/><path class="cls-13" d="M264.15,407.3a13.83,13.83,0,0,1-14.72-1.09c-4-3.21-9.51-12.25-7.58-16.79Z"/><path class="cls-12" d="M339.56,412a1.51,1.51,0,0,1-1.65,1.31h0a1.51,1.51,0,0,1-1.64-1.31V299.77a1.51,1.51,0,0,1,1.64-1.31h0a1.51,1.51,0,0,1,1.65,1.31Z"/><ellipse class="cls-12" cx="337.91" cy="415.69" rx="6.48" ry="5.17"/><path class="cls-12" d="M338,269.88c-6.84,2.68-12,14.72-12,20.47s5.18,10.52,12,11.54Z"/><path class="cls-13" d="M337.85,269.88c6.84,2.68,12,14.72,12,20.47s-5.18,10.52-12,11.54Z"/><path class="cls-12" d="M368.19,305.77c-7.21-2-21.55,3.64-26.65,7.7s-5.67,10.36-1.73,14.94Z"/><path class="cls-13" d="M368.11,305.71c2.46,5.75-4.56,17.19-9.65,21.25s-13,4.52-18.73,1.38Z"/><path class="cls-12" d="M368.19,332.35c-7.21-2-21.55,3.64-26.65,7.7s-5.67,10.36-1.73,14.93Z"/><path class="cls-13" d="M368.11,332.29c2.46,5.75-4.56,17.19-9.65,21.25s-13,4.52-18.73,1.38Z"/><path class="cls-12" d="M368.19,358.93c-7.21-2-21.55,3.64-26.65,7.7s-5.67,10.36-1.73,14.93Z"/><path class="cls-13" d="M368.11,358.87c2.46,5.75-4.56,17.19-9.65,21.26s-13,4.51-18.73,1.38Z"/><path class="cls-12" d="M363.13,389.53c-5.92-1.61-17.72,3-21.9,6.33s-4.66,8.52-1.43,12.28Z"/><path class="cls-13" d="M363.07,389.48c2,4.73-3.74,14.14-7.94,17.48a14.47,14.47,0,0,1-15.39,1.13Z"/><path class="cls-12" d="M307.63,305.77c7.22-2,21.55,3.64,26.66,7.7S340,323.83,336,328.41Z"/><path class="cls-13" d="M307.71,305.71c-2.46,5.75,4.56,17.19,9.66,21.25s13,4.52,18.72,1.38Z"/><path class="cls-12" d="M307.63,332.35c7.22-2,21.55,3.64,26.66,7.7S340,350.41,336,355Z"/><path class="cls-13" d="M307.71,332.29c-2.46,5.75,4.56,17.19,9.66,21.25s13,4.52,18.72,1.38Z"/><path class="cls-12" d="M307.63,358.93c7.22-2,21.55,3.64,26.66,7.7S340,377,336,381.56Z"/><path class="cls-13" d="M307.71,358.87c-2.46,5.75,4.56,17.19,9.66,21.26s13,4.51,18.72,1.38Z"/><path class="cls-12" d="M312.69,389.53c5.93-1.61,17.72,3,21.91,6.33s4.66,8.52,1.42,12.28Z"/><path class="cls-13" d="M335.58,407.3a13.81,13.81,0,0,1-14.71-1.09c-4-3.21-9.52-12.25-7.59-16.79Z"/><path class="cls-12" d="M403.06,382.61a1.51,1.51,0,0,1-1.65,1.31h0a1.5,1.5,0,0,1-1.64-1.31V270.38a1.5,1.5,0,0,1,1.64-1.32h0a1.51,1.51,0,0,1,1.65,1.32Z"/><ellipse class="cls-12" cx="401.41" cy="386.3" rx="6.48" ry="5.17"/><path class="cls-12" d="M401.47,240.48c-6.84,2.68-12,14.72-12,20.47s5.18,10.52,12,11.54Z"/><path class="cls-13" d="M401.35,240.48c6.84,2.68,12,14.72,12,20.47s-5.19,10.52-12,11.54Z"/><path class="cls-12" d="M431.69,276.37c-7.22-2-21.56,3.64-26.66,7.71s-5.66,10.36-1.72,14.93Z"/><path class="cls-13" d="M431.61,276.31c2.46,5.75-4.56,17.19-9.65,21.26s-13,4.51-18.73,1.38Z"/><path class="cls-12" d="M431.69,303c-7.22-2-21.56,3.64-26.66,7.71s-5.66,10.36-1.72,14.93Z"/><path class="cls-13" d="M431.61,302.89c2.46,5.75-4.56,17.19-9.65,21.26s-13,4.51-18.73,1.38Z"/><path class="cls-12" d="M431.69,329.53c-7.22-2-21.56,3.64-26.66,7.7s-5.66,10.36-1.72,14.94Z"/><path class="cls-13" d="M431.61,329.47c2.46,5.75-4.56,17.19-9.65,21.26s-13,4.52-18.73,1.38Z"/><path class="cls-12" d="M426.63,360.13c-5.92-1.61-17.72,3-21.9,6.34s-4.66,8.52-1.43,12.28Z"/><path class="cls-13" d="M426.57,360.09c2,4.73-3.75,14.13-7.94,17.47a14.49,14.49,0,0,1-15.4,1.14Z"/><path class="cls-12" d="M371.13,276.37c7.21-2,21.55,3.64,26.65,7.71s5.66,10.36,1.73,14.93Z"/><path class="cls-13" d="M371.21,276.31c-2.46,5.75,4.56,17.19,9.65,21.26s13,4.51,18.73,1.38Z"/><path class="cls-12" d="M371.13,303c7.21-2,21.55,3.64,26.65,7.71s5.66,10.36,1.73,14.93Z"/><path class="cls-13" d="M371.21,302.89c-2.46,5.75,4.56,17.19,9.65,21.26s13,4.51,18.73,1.38Z"/><path class="cls-12" d="M371.13,329.53c7.21-2,21.55,3.64,26.65,7.7s5.66,10.36,1.73,14.94Z"/><path class="cls-13" d="M371.21,329.47c-2.46,5.75,4.56,17.19,9.65,21.26s13,4.52,18.73,1.38Z"/><path class="cls-12" d="M376.18,360.13c5.93-1.61,17.73,3,21.92,6.34s4.65,8.52,1.42,12.28Z"/><path class="cls-13" d="M399.08,377.9a13.77,13.77,0,0,1-14.71-1.09c-4-3.21-9.52-12.25-7.59-16.79Z"/><path class="cls-13" d="M250.74,280.11l0,0h0a9.88,9.88,0,0,0,12-1.1c3.27-3.12,7.76-11.85,6.25-16.31l0,0h0v0l0,0c-4.69-1.43-13.86,2.84-17.13,6a8.43,8.43,0,0,0-1.28,1.55V259.37a1.43,1.43,0,0,0,.12.21h0l0,0,0,0v0a9.87,9.87,0,0,0,12-1.1c3.27-3.11,7.76-11.85,6.25-16.3l0,0h0v0l0,0c-4.69-1.44-13.86,2.84-17.13,5.95a8.78,8.78,0,0,0-1.28,1.55V238.91a9.1,9.1,0,0,0,6.66-8.6c0-4.41-3.31-13.61-7.69-15.75v0l0,0a.06.06,0,0,1-.05,0v0c-4.38,2.14-7.7,11.34-7.7,15.75a9.09,9.09,0,0,0,6.67,8.6v10.78a8.92,8.92,0,0,0-1.28-1.56c-3.28-3.11-12.45-7.39-17.13-5.95l0,0v0H230l0,0c-1.51,4.45,3,13.19,6.25,16.3a9.85,9.85,0,0,0,12,1.1v0s0,0,0,0l0,0h0c0-.06.08-.14.13-.2v10.8a9.33,9.33,0,0,0-1.28-1.55c-3.28-3.12-12.45-7.39-17.13-6l0,0v0H230l0,0c-1.51,4.46,3,13.19,6.25,16.31a9.87,9.87,0,0,0,12,1.1h0l0,0h0v0c0-.07.08-.14.13-.21v10.81a9.39,9.39,0,0,0-1.28-1.56c-3.28-3.11-12.45-7.39-17.13-5.95l0,0v.05H230l0,0c-1.51,4.45,3,13.19,6.25,16.3a9.85,9.85,0,0,0,12,1.1h0l0,0,0,0h0c0-.07.08-.15.13-.22V313a7.09,7.09,0,0,0-1.08-1.32c-2.69-2.57-10.23-6.08-14.08-4.9l0,0v0h0l0,0c-1.24,3.67,2.45,10.85,5.15,13.41a8.1,8.1,0,0,0,9.89.91h0v0l0,0v0c0-.07.08-.14.13-.22v2.26a4,4,0,0,0-3.12,3.84,4.19,4.19,0,0,0,8.37,0,4,4,0,0,0-3.12-3.84v-2.25a2.25,2.25,0,0,0,.12.21l0,0h0l0,0h0a8.1,8.1,0,0,0,9.89-.91c2.7-2.56,6.39-9.75,5.14-13.41l0,0h0v0l0,0c-3.85-1.18-11.4,2.34-14.09,4.9A7,7,0,0,0,250.6,313V300.36a1.43,1.43,0,0,0,.12.21l0,0h0l0,0h0a9.85,9.85,0,0,0,12-1.1c3.28-3.11,7.76-11.85,6.25-16.3l0,0h0v-.05l0,0c-4.69-1.44-13.86,2.84-17.13,5.95a9.17,9.17,0,0,0-1.27,1.55v-10.8c0,.06.07.14.12.21l0,0Z"/><path class="cls-13" d="M352.64,276.1s0,0,0,0h0a9.87,9.87,0,0,0,12-1.1c3.27-3.12,7.76-11.84,6.25-16.3l0,0h-.05v0l0,0c-4.69-1.44-13.86,2.83-17.13,5.95a9.33,9.33,0,0,0-1.28,1.55v-10.8c.05.06.07.14.12.2v0h0s0,0,0,0v0a9.87,9.87,0,0,0,12-1.09c3.27-3.12,7.76-11.85,6.25-16.31l0,0h-.05v0l0,0c-4.69-1.44-13.86,2.84-17.13,6a9.39,9.39,0,0,0-1.28,1.56V234.9a9.08,9.08,0,0,0,6.66-8.6c0-4.41-3.31-13.61-7.69-15.74v-.05l0,0-.05,0v.05c-4.38,2.13-7.69,11.33-7.69,15.74a9.1,9.1,0,0,0,6.66,8.6v10.78a8.49,8.49,0,0,0-1.28-1.56c-3.27-3.11-12.44-7.39-17.13-6l0,0s0,0,0,0h0l0,0c-1.51,4.46,3,13.19,6.25,16.31a9.87,9.87,0,0,0,12,1.09l0,0s0,0,0,0h0v0a2.12,2.12,0,0,1,.12-.2v10.8a8.78,8.78,0,0,0-1.28-1.55c-3.27-3.12-12.44-7.39-17.13-5.95l0,0v0h0l0,0c-1.51,4.45,3,13.18,6.25,16.3a9.88,9.88,0,0,0,12,1.1h0l0,0h0v0a2.25,2.25,0,0,1,.12-.21v10.81a8.49,8.49,0,0,0-1.28-1.56c-3.27-3.11-12.44-7.39-17.13-5.95l0,0v0h0l0,0c-1.51,4.45,3,13.19,6.25,16.3a9.87,9.87,0,0,0,12,1.1v0l0,0h0a2.39,2.39,0,0,1,.12-.22V309a7.09,7.09,0,0,0-1.08-1.32c-2.69-2.56-10.23-6.08-14.08-4.9l0,0v0h0l0,0c-1.24,3.67,2.45,10.85,5.14,13.41a8.1,8.1,0,0,0,9.89.91h0v0l0,0v0c0-.07.07-.14.12-.22v2.26a4,4,0,0,0-3.12,3.84,4.19,4.19,0,0,0,8.37,0,4,4,0,0,0-3.12-3.84v-2.25a2.25,2.25,0,0,0,.12.21v0h0l0,0h0a8.1,8.1,0,0,0,9.89-.91c2.7-2.56,6.39-9.75,5.14-13.41l0,0h0v0l0,0c-3.84-1.18-11.39,2.34-14.08,4.9a7.43,7.43,0,0,0-1.08,1.32V296.35c.05.07.08.15.13.21l0,0,0,0,0,0v0a9.85,9.85,0,0,0,12-1.1c3.27-3.11,7.76-11.85,6.25-16.3l0,0h-.05v0l0,0c-4.69-1.44-13.86,2.84-17.13,5.95a9.39,9.39,0,0,0-1.28,1.56V275.86c.05.07.08.14.13.21l0,0Z"/><line class="cls-14" x1="250.85" y1="354.68" x2="250.85" y2="289.45"/><path class="cls-15" d="M252,242.57a14.7,14.7,0,0,0-1.54,3.36,18.37,18.37,0,0,0-.95,5,8.46,8.46,0,0,0,1.17,5.39,2.6,2.6,0,0,0,1,.83,1.17,1.17,0,0,0,.65.15.89.89,0,0,0,.53-.11,1.74,1.74,0,0,0,.8-1.06,3.78,3.78,0,0,0,.08-1.19c0-2-.22-2.45-1.78-4a9.86,9.86,0,0,1-1.22-1.45,4.63,4.63,0,0,1,0-2.45,11.9,11.9,0,0,1,.7-2.3,11.34,11.34,0,0,0,.72-2.06C252.3,242.4,252.23,242.37,252,242.57Z"/><path class="cls-15" d="M250.83,290.56a5.27,5.27,0,0,0-1.53-2.44,7.23,7.23,0,0,0-2.42-1.6,4.72,4.72,0,0,0-.53-.11,1.62,1.62,0,0,1-1-.47c-1.32-1.22-2-3.51-2.21-7.6l0-.43.24.83a16.9,16.9,0,0,0,1.31,3.38c1.14,2.27,2.78,4.22,4,4.77a2.36,2.36,0,0,0,1.23.26c.63,0,.79,0,.93-.33s.09-.24.09-.79a2.78,2.78,0,0,0-.12-1,5.94,5.94,0,0,0-1.42-2.27,5.44,5.44,0,0,0-2.06-1.42,4.7,4.7,0,0,0-1.24-.4c-.17,0-.23-.07-.52-.33A5.87,5.87,0,0,1,245,280a11.31,11.31,0,0,1-1.43-2.84,27.63,27.63,0,0,1-.4-3.95c0-.76,0-1,.09-.67,0,.1.2.65.37,1.22a17,17,0,0,0,1.52,3.86,12.11,12.11,0,0,0,2.13,2.85,3.67,3.67,0,0,0,2.8,1.3c.68,0,.85-.2.88-.88a3.88,3.88,0,0,0-.58-2.17,6.58,6.58,0,0,0-1.35-1.63,5.77,5.77,0,0,0-2.53-1.44c-.77-.2-.85-.26-1.48-1.18a8.82,8.82,0,0,1-1.78-5.41c-.05-.85-.09-2.18-.07-2.12s.13.37.26.78c1.16,3.59,1.84,5,3.19,6.56a5.64,5.64,0,0,0,2.44,1.92,2.1,2.1,0,0,0,.82.09,1.46,1.46,0,0,0,.72-.07c.29-.14.34-.29.34-1a3.08,3.08,0,0,0-.36-1.6,6.22,6.22,0,0,0-1.59-2.06,5.92,5.92,0,0,0-2.53-1.39c-.76-.2-.86-.28-1.69-1.44a5.7,5.7,0,0,1-1.12-2.21,18.92,18.92,0,0,1-.47-4.34l0-.77.09.27.38,1.2a19.47,19.47,0,0,0,1.57,4,10,10,0,0,0,3.26,3.64,2.69,2.69,0,0,0,1.47.34c.78,0,.82,0,1-.34a3.62,3.62,0,0,0-.39-2.58,6.84,6.84,0,0,0-4.12-3.17,2.39,2.39,0,0,1-.49-.19,8.3,8.3,0,0,1-1.67-2,9.43,9.43,0,0,1-.91-3.65c0-.48-.14-2.36-.13-2.71v-.2l.08.28a23.25,23.25,0,0,0,2,5.17,11,11,0,0,0,1.9,2.56,6.14,6.14,0,0,0,1.94,1.45c.84.37,1.49.28,1.78-.26.1-.17.1-.24.1-.76a2.41,2.41,0,0,0-.12-1,5.76,5.76,0,0,0-.93-1.7,10.77,10.77,0,0,0-1.59-1.49,4.57,4.57,0,0,0-2-1,1.23,1.23,0,0,1-.42-.13,4.48,4.48,0,0,1-1-1.11c-1.24-1.68-1.61-3.09-1.71-6.47a3.15,3.15,0,0,1,0-.93,11.24,11.24,0,0,1,.5,1.57,15.27,15.27,0,0,0,3.11,6.05,5.43,5.43,0,0,0,2.89,1.92,1,1,0,0,0,.55,0c.53-.13.73-.46.73-1.16a3.26,3.26,0,0,0-.25-1.3,5.63,5.63,0,0,0-1.66-2.28,5.71,5.71,0,0,0-2.8-1.61,1.38,1.38,0,0,1-.88-.55,7.37,7.37,0,0,1-1.52-2.45,13.9,13.9,0,0,1-.71-4.56,5.37,5.37,0,0,0-.13-1.63s-.06,0-.08.13a18,18,0,0,0-.08,4.08,11.76,11.76,0,0,1,0,2.66,10.76,10.76,0,0,0,0,2.67,11.75,11.75,0,0,1,0,2.79,10.84,10.84,0,0,0,0,2.68,11.12,11.12,0,0,1,0,2.71,11.55,11.55,0,0,0,0,2.76,11.15,11.15,0,0,1,0,2.71,11.38,11.38,0,0,0,0,2.74,10.62,10.62,0,0,1,0,2.65,11.09,11.09,0,0,0,0,2.57,16.8,16.8,0,0,1,.06,1.72,34.63,34.63,0,0,0,.4,5.25,8.21,8.21,0,0,0,.47,2.38c.65,1.85,2.43,3.09,3.44,4.36"/><path class="cls-15" d="M255.23,244.92c-.07.12,0,.2.16,1.06a9.7,9.7,0,0,1,.35,2.35,14.91,14.91,0,0,1-.62,4.55c-.28,1.05-.28,1,.07,1s.44-.12.68-.71a17.09,17.09,0,0,0,.74-4.17,11.91,11.91,0,0,0-.6-3.66,1.93,1.93,0,0,0-.14-.47.81.81,0,0,0-.32,0C255.33,244.85,255.27,244.86,255.23,244.92Z"/><path class="cls-15" d="M246.77,245.31c-.08.06-.14.26-.37,1.32a9.7,9.7,0,0,0-.43,3A9.46,9.46,0,0,0,246,251a7.42,7.42,0,0,0,.37,1.58.61.61,0,0,0,.56.13c.26,0,.27-.07.15-.76a15.48,15.48,0,0,1-.26-3.67,6.89,6.89,0,0,1,.43-2.09,5.86,5.86,0,0,0,.22-.7.24.24,0,0,0-.09-.15A.71.71,0,0,0,246.77,245.31Z"/><path class="cls-15" d="M259.23,248.88c0,.1-.09.56-.14,1a10.17,10.17,0,0,1-1.73,5.11l-.76,1.37-.46.07a4.05,4.05,0,0,0-1.3.35,7,7,0,0,0-3.14,2.77,2.7,2.7,0,0,0-.41,1.56c0,1,0,1.26.4,1.42a2.88,2.88,0,0,0,1.82-.2c1.12-.51,2.43-2,3.83-4.47a15,15,0,0,0,1.87-5.69,12,12,0,0,0,.1-3.5A.5.5,0,0,0,259.23,248.88Z"/><path class="cls-15" d="M259.3,254.19a4.24,4.24,0,0,0-.2,1.17,11.6,11.6,0,0,1-.59,2.86c-.51,1.41-1.67,3.32-2.25,3.55h0a5.57,5.57,0,0,0-3,1.59,6.29,6.29,0,0,0-1.91,2.76c-.2.71-.08,1.62.23,1.81.1.06.23.07.75.07a2.42,2.42,0,0,0,.95-.11,3.08,3.08,0,0,0,1.19-.7,16.65,16.65,0,0,0,3.68-5.43,16.35,16.35,0,0,0,1.22-5,20.48,20.48,0,0,0,.05-2.5S259.31,254.17,259.3,254.19Z"/><path class="cls-15" d="M259.22,259.72a5,5,0,0,0-.08.74,9.49,9.49,0,0,1-.4,2.33,12,12,0,0,1-1.6,3.46c-.44.68-.57.79-1.06.92a6.55,6.55,0,0,0-2.65,1.35,5.1,5.1,0,0,0-2.21,3.9,1.09,1.09,0,0,0,.1.6c.14.26.27.31.93.31a2.74,2.74,0,0,0,2.17-.75,15.64,15.64,0,0,0,4.8-9.87,11.48,11.48,0,0,0,.18-2.95C259.37,259.63,259.29,259.61,259.22,259.72Z"/><path class="cls-15" d="M259.19,265.3a2.19,2.19,0,0,0-.05.47,13.53,13.53,0,0,1-.7,3.5,10.89,10.89,0,0,1-1.89,3.15,1.73,1.73,0,0,1-.51.2,5.4,5.4,0,0,0-1.68.68,7.26,7.26,0,0,0-3,3.47,2.62,2.62,0,0,0,.09,1.89l.1.12h.69a2.72,2.72,0,0,0,2.18-.69,15,15,0,0,0,2.93-4,11.27,11.27,0,0,0,1.44-3.45,18.83,18.83,0,0,0,.63-5.36C259.33,265.05,259.24,265.07,259.19,265.3Z"/><path class="cls-15" d="M259.27,270.39a7,7,0,0,0-.2,1.31,10.33,10.33,0,0,1-.94,3.63,14.79,14.79,0,0,1-1.48,2.47c-.14.14-.28.2-.72.28a7.11,7.11,0,0,0-4.19,3.15,4.4,4.4,0,0,0-.54,2.15c0,.45.12.63.38.76a2.73,2.73,0,0,0,1.9-.13c1.15-.5,2.49-2.07,3.88-4.55a14.39,14.39,0,0,0,1.76-5,19.38,19.38,0,0,0,.28-2.94C259.42,270.48,259.38,270.14,259.27,270.39Z"/><path class="cls-15" d="M253.15,289.54c1.17-.4,2.36-1.65,3.79-4a15.37,15.37,0,0,0,2.29-6.44,19.29,19.29,0,0,0,.14-3.32c-.05-.13-.14-.06-.18.14s-.05.47-.07.8c-.09,2.05-.52,3.26-2.08,5.85-.53.87-.4.78-1.1.86a3.64,3.64,0,0,0-2.38,1.18,9.39,9.39,0,0,0-2.08,2.6,4.08,4.08,0,0,0-.26,1.73"/><path class="cls-15" d="M251.33,291.14c2-1.25.45.55,4.5-4.36a18.26,18.26,0,0,0,1.76-3.15c0-.1,0-.14-.1-.08a10.13,10.13,0,0,0-.76,1.16,10.8,10.8,0,0,1-3.78,3.75c-1.16.8-1.34.87-1.73.69"/><line class="cls-14" x1="210.53" y1="373.69" x2="210.53" y2="308.46"/><path class="cls-15" d="M211.72,261.58a14,14,0,0,0-1.54,3.35,18.43,18.43,0,0,0-1,5.05,8.41,8.41,0,0,0,1.17,5.39,2.65,2.65,0,0,0,1,.83,1.21,1.21,0,0,0,.65.15,1,1,0,0,0,.54-.11,1.78,1.78,0,0,0,.8-1.06,4,4,0,0,0,.07-1.2c0-2-.22-2.44-1.77-4.05a10.24,10.24,0,0,1-1.23-1.44,4.68,4.68,0,0,1,0-2.45,10.64,10.64,0,0,1,.7-2.3,12.07,12.07,0,0,0,.71-2.06C212,261.41,211.9,261.38,211.72,261.58Z"/><path class="cls-15" d="M210.51,309.57a5.3,5.3,0,0,0-1.54-2.44,7.14,7.14,0,0,0-2.41-1.6,3.43,3.43,0,0,0-.53-.11,1.56,1.56,0,0,1-1-.48c-1.32-1.22-2-3.5-2.21-7.59l0-.43.23.82a16.79,16.79,0,0,0,1.32,3.39c1.14,2.27,2.77,4.22,4,4.77a2.41,2.41,0,0,0,1.24.26c.62,0,.79-.06.93-.33s.09-.25.08-.79a2.78,2.78,0,0,0-.11-1,5.94,5.94,0,0,0-1.42-2.27,5.74,5.74,0,0,0-2.06-1.43,5.39,5.39,0,0,0-1.24-.4c-.17,0-.24-.06-.52-.32a5.25,5.25,0,0,1-.59-.66,11.65,11.65,0,0,1-1.43-2.84,29,29,0,0,1-.4-3.95c0-.75,0-1,.1-.66l.36,1.22a16.92,16.92,0,0,0,1.53,3.85,11.47,11.47,0,0,0,2.13,2.86,3.67,3.67,0,0,0,2.8,1.3c.68,0,.85-.21.87-.88a3.73,3.73,0,0,0-.58-2.17,6.57,6.57,0,0,0-1.34-1.64,5.82,5.82,0,0,0-2.54-1.43c-.77-.2-.85-.27-1.48-1.18a8.82,8.82,0,0,1-1.78-5.41c0-.85-.09-2.18-.06-2.13s.13.38.26.79c1.16,3.59,1.84,5,3.19,6.56a5.62,5.62,0,0,0,2.43,1.92,2.19,2.19,0,0,0,.83.09,1.37,1.37,0,0,0,.71-.08c.3-.13.35-.28.35-1a3.06,3.06,0,0,0-.37-1.59,6.19,6.19,0,0,0-1.58-2.06,5.92,5.92,0,0,0-2.53-1.39c-.77-.2-.86-.29-1.7-1.44a5.73,5.73,0,0,1-1.11-2.21,19.42,19.42,0,0,1-.48-4.35l0-.76.09.27c.05.15.22.69.37,1.2a20.27,20.27,0,0,0,1.58,4,9.85,9.85,0,0,0,3.25,3.63,2.73,2.73,0,0,0,1.48.35c.78,0,.81,0,.94-.35a3.5,3.5,0,0,0-.39-2.57,6.84,6.84,0,0,0-4.11-3.18,2,2,0,0,1-.5-.18,8.3,8.3,0,0,1-1.66-2,9.41,9.41,0,0,1-.92-3.65c-.05-.48-.14-2.36-.13-2.71v-.2l.08.27a22.21,22.21,0,0,0,2,5.18,11.18,11.18,0,0,0,1.89,2.56,6.54,6.54,0,0,0,1.94,1.45c.85.37,1.49.27,1.79-.26.09-.18.1-.24.1-.76a2.28,2.28,0,0,0-.13-1,5.81,5.81,0,0,0-.92-1.69,11.87,11.87,0,0,0-1.59-1.49,4.62,4.62,0,0,0-2-1,1.39,1.39,0,0,1-.42-.13,4.69,4.69,0,0,1-1-1.11c-1.24-1.68-1.62-3.09-1.72-6.47a3.66,3.66,0,0,1,0-.93,9.54,9.54,0,0,1,.51,1.57,15.14,15.14,0,0,0,3.11,6.05,5.44,5.44,0,0,0,2.88,1.92,1,1,0,0,0,.56,0c.53-.14.73-.47.72-1.16a3.24,3.24,0,0,0-.24-1.3,5.76,5.76,0,0,0-1.67-2.29,5.69,5.69,0,0,0-2.79-1.6,1.38,1.38,0,0,1-.89-.56,7.39,7.39,0,0,1-1.52-2.44,14.2,14.2,0,0,1-.7-4.56c0-1.25-.07-1.59-.14-1.63s0,0-.08.13a18,18,0,0,0-.07,4.08,11.77,11.77,0,0,1,0,2.65,10.84,10.84,0,0,0,0,2.68,11.75,11.75,0,0,1,0,2.79,10.85,10.85,0,0,0,0,2.68,11.11,11.11,0,0,1,0,2.71,11.46,11.46,0,0,0,0,2.75,11.23,11.23,0,0,1,0,2.72,11.3,11.3,0,0,0,0,2.73,10.7,10.7,0,0,1,0,2.66,11.58,11.58,0,0,0,0,2.56,17.17,17.17,0,0,1,.06,1.73,37.64,37.64,0,0,0,.4,5.25,8.57,8.57,0,0,0,.48,2.38c.65,1.85,2.43,3.09,3.43,4.36"/><path class="cls-15" d="M214.91,263.93c-.07.12-.06.19.15,1.06a9.68,9.68,0,0,1,.36,2.35,15,15,0,0,1-.63,4.55c-.27,1.05-.28,1,.07,1s.44-.11.69-.7a17.72,17.72,0,0,0,.73-4.17,11.71,11.71,0,0,0-.59-3.66,3.87,3.87,0,0,0-.14-.47.85.85,0,0,0-.32,0C215,263.86,215,263.87,214.91,263.93Z"/><path class="cls-15" d="M206.45,264.32c-.08.05-.14.26-.38,1.32a10,10,0,0,0-.43,3,8.06,8.06,0,0,0,.08,1.37,6.28,6.28,0,0,0,.37,1.58.62.62,0,0,0,.56.13c.26,0,.27-.08.14-.76a16,16,0,0,1-.26-3.67,7.14,7.14,0,0,1,.43-2.09,6.53,6.53,0,0,0,.22-.7.24.24,0,0,0-.09-.15A.69.69,0,0,0,206.45,264.32Z"/><path class="cls-15" d="M218.91,267.89a8.39,8.39,0,0,0-.14,1A10.14,10.14,0,0,1,217,274l-.76,1.38-.46.06a4.55,4.55,0,0,0-1.3.35,7,7,0,0,0-3.14,2.78,2.56,2.56,0,0,0-.41,1.56c0,1,0,1.26.39,1.42a2.87,2.87,0,0,0,1.82-.2c1.13-.51,2.43-2,3.84-4.47a15.21,15.21,0,0,0,1.86-5.69,12.18,12.18,0,0,0,.11-3.5S218.93,267.79,218.91,267.89Z"/><path class="cls-15" d="M219,273.2a3.86,3.86,0,0,0-.21,1.17,11.2,11.2,0,0,1-.58,2.86c-.51,1.41-1.67,3.32-2.25,3.54h-.05a5.58,5.58,0,0,0-3,1.58,6.23,6.23,0,0,0-1.91,2.77c-.21.7-.09,1.62.23,1.81a1.76,1.76,0,0,0,.75.07,2.57,2.57,0,0,0,.94-.11,3.19,3.19,0,0,0,1.2-.7,16.8,16.8,0,0,0,3.68-5.43,16.36,16.36,0,0,0,1.21-5,19,19,0,0,0,.06-2.5S219,273.18,219,273.2Z"/><path class="cls-15" d="M218.9,278.73a3.55,3.55,0,0,0-.09.74,9.31,9.31,0,0,1-.39,2.32,12.19,12.19,0,0,1-1.6,3.47c-.45.68-.57.79-1.07.92a6.43,6.43,0,0,0-2.65,1.35,5.08,5.08,0,0,0-2.2,3.9,1.11,1.11,0,0,0,.09.6c.15.26.28.31.93.31a2.72,2.72,0,0,0,2.17-.75,16.49,16.49,0,0,0,3.51-4.95,17,17,0,0,0,1.3-4.93,11.9,11.9,0,0,0,.18-2.94C219,278.64,219,278.62,218.9,278.73Z"/><path class="cls-15" d="M218.86,284.31a3.08,3.08,0,0,0-.05.47,13.48,13.48,0,0,1-.69,3.5,11.11,11.11,0,0,1-1.9,3.15,1.65,1.65,0,0,1-.5.2,5.21,5.21,0,0,0-1.68.68,7.26,7.26,0,0,0-3,3.47,2.57,2.57,0,0,0,.09,1.89l.1.11h.69a2.67,2.67,0,0,0,2.17-.7,15,15,0,0,0,2.94-4,11.64,11.64,0,0,0,1.44-3.44,18.75,18.75,0,0,0,.62-5.36C219,284.06,218.91,284.08,218.86,284.31Z"/><path class="cls-15" d="M219,289.4a5.39,5.39,0,0,0-.2,1.3,10.84,10.84,0,0,1-.94,3.64,14.79,14.79,0,0,1-1.48,2.47,1.2,1.2,0,0,1-.72.28,7,7,0,0,0-4.19,3.14,4.25,4.25,0,0,0-.54,2.16c0,.45.11.63.37.76a2.72,2.72,0,0,0,1.9-.13c1.15-.5,2.5-2.07,3.88-4.55a14.68,14.68,0,0,0,1.77-5.05,19.37,19.37,0,0,0,.27-2.95C219.1,289.48,219.05,289.15,219,289.4Z"/><path class="cls-15" d="M212.83,308.55c1.16-.4,2.36-1.65,3.79-3.95a15.36,15.36,0,0,0,2.28-6.44,19.57,19.57,0,0,0,.15-3.32c-.06-.13-.14-.07-.19.14a7.78,7.78,0,0,0-.06.8c-.09,2-.53,3.26-2.09,5.85-.52.87-.4.78-1.09.85a3.7,3.7,0,0,0-2.39,1.19,9.33,9.33,0,0,0-2.07,2.6,4.07,4.07,0,0,0-.27,1.73"/><path class="cls-15" d="M211,310.15c2-1.25.46.55,4.51-4.37a18.64,18.64,0,0,0,1.76-3.14c0-.11,0-.14-.1-.08a11.67,11.67,0,0,0-.77,1.15,10.7,10.7,0,0,1-3.77,3.76c-1.17.8-1.35.87-1.74.69"/><line class="cls-14" x1="293.18" y1="330.63" x2="293.18" y2="265.4"/><path class="cls-15" d="M294.37,218.52a14.37,14.37,0,0,0-1.54,3.35,18.43,18.43,0,0,0-.95,5,8.46,8.46,0,0,0,1.17,5.39,2.6,2.6,0,0,0,1,.83,1.17,1.17,0,0,0,.65.15.89.89,0,0,0,.53-.11,1.79,1.79,0,0,0,.81-1.06,4.4,4.4,0,0,0,.07-1.19c0-2-.22-2.45-1.78-4.06a10.68,10.68,0,0,1-1.22-1.44,4.65,4.65,0,0,1,0-2.45,11.9,11.9,0,0,1,.7-2.3,11.62,11.62,0,0,0,.72-2.06C294.63,218.35,294.56,218.32,294.37,218.52Z"/><path class="cls-15" d="M293.16,266.51a5.27,5.27,0,0,0-1.53-2.44,7.08,7.08,0,0,0-2.42-1.6,3.19,3.19,0,0,0-.53-.11,1.58,1.58,0,0,1-1-.48c-1.32-1.22-2-3.5-2.21-7.59l0-.43.24.83a16.9,16.9,0,0,0,1.31,3.38c1.14,2.27,2.78,4.22,4,4.77a2.36,2.36,0,0,0,1.23.26c.63,0,.79-.06.93-.33s.09-.24.09-.79a2.78,2.78,0,0,0-.12-1,5.82,5.82,0,0,0-1.42-2.27,5.44,5.44,0,0,0-2.06-1.42,5.2,5.2,0,0,0-1.24-.41c-.16,0-.23-.06-.52-.32a5.17,5.17,0,0,1-.58-.66,11,11,0,0,1-1.43-2.84,29,29,0,0,1-.4-3.94c0-.76,0-1,.1-.67l.36,1.22a16.94,16.94,0,0,0,1.52,3.85,11.74,11.74,0,0,0,2.14,2.86,3.67,3.67,0,0,0,2.8,1.3c.67,0,.84-.21.87-.88a3.88,3.88,0,0,0-.58-2.17,6.62,6.62,0,0,0-1.35-1.64,5.85,5.85,0,0,0-2.53-1.43c-.77-.2-.85-.27-1.48-1.18a8.82,8.82,0,0,1-1.78-5.41c-.05-.85-.09-2.18-.07-2.13l.27.79c1.15,3.59,1.83,5,3.18,6.56a5.64,5.64,0,0,0,2.44,1.92,2.16,2.16,0,0,0,.82.09c.47,0,.57,0,.72-.08s.34-.28.34-1a3.07,3.07,0,0,0-.36-1.59,6.22,6.22,0,0,0-1.59-2.06,5.94,5.94,0,0,0-2.52-1.39c-.77-.2-.87-.29-1.7-1.44a5.77,5.77,0,0,1-1.12-2.21,19.54,19.54,0,0,1-.47-4.35l0-.76.09.27.38,1.2a20.32,20.32,0,0,0,1.57,4,10,10,0,0,0,3.26,3.63,2.71,2.71,0,0,0,1.47.35c.78,0,.82,0,.95-.35a3.6,3.6,0,0,0-.39-2.57,6.87,6.87,0,0,0-4.11-3.18,1.9,1.9,0,0,1-.5-.18,8.3,8.3,0,0,1-1.67-2,9.43,9.43,0,0,1-.91-3.65c0-.48-.14-2.36-.13-2.71v-.2l.08.27a23.18,23.18,0,0,0,2,5.18,11.21,11.21,0,0,0,1.9,2.56,6.29,6.29,0,0,0,1.94,1.45c.84.37,1.49.28,1.79-.26.09-.18.09-.24.09-.76a2.47,2.47,0,0,0-.12-1,5.84,5.84,0,0,0-.93-1.69,10.77,10.77,0,0,0-1.59-1.49,4.54,4.54,0,0,0-2-1,1.47,1.47,0,0,1-.43-.13,4.93,4.93,0,0,1-1-1.11c-1.24-1.68-1.61-3.09-1.71-6.47a3.1,3.1,0,0,1,0-.93,9.54,9.54,0,0,1,.51,1.57,15.26,15.26,0,0,0,3.1,6.05A5.43,5.43,0,0,0,292,236.1a1,1,0,0,0,.55,0c.53-.14.74-.47.73-1.16a3.26,3.26,0,0,0-.25-1.3,7.2,7.2,0,0,0-4.45-3.89,1.4,1.4,0,0,1-.89-.55,7.37,7.37,0,0,1-1.52-2.45,13.9,13.9,0,0,1-.71-4.56,5.37,5.37,0,0,0-.13-1.63s-.06.05-.08.13a18.58,18.58,0,0,0-.08,4.08,11.68,11.68,0,0,1,0,2.65,10.84,10.84,0,0,0,0,2.68,11.75,11.75,0,0,1,0,2.79,10.84,10.84,0,0,0,0,2.68,11.11,11.11,0,0,1,0,2.71,11.55,11.55,0,0,0,0,2.76,11.15,11.15,0,0,1,0,2.71,11.3,11.3,0,0,0,0,2.73,10.7,10.7,0,0,1,0,2.66,11,11,0,0,0,0,2.56,17.17,17.17,0,0,1,.06,1.73,34.71,34.71,0,0,0,.4,5.25,7.89,7.89,0,0,0,.48,2.38c.64,1.85,2.42,3.09,3.43,4.36"/><path class="cls-15" d="M297.56,220.87c-.07.12-.05.19.16,1.06a9.63,9.63,0,0,1,.35,2.35,14.91,14.91,0,0,1-.62,4.55c-.28,1-.28,1,.07,1s.44-.11.68-.7a17.19,17.19,0,0,0,.74-4.17,11.87,11.87,0,0,0-.6-3.66,1.93,1.93,0,0,0-.14-.47.78.78,0,0,0-.31,0C297.66,220.8,297.6,220.81,297.56,220.87Z"/><path class="cls-15" d="M289.1,221.26c-.08.06-.14.26-.37,1.32a9.7,9.7,0,0,0-.43,3,9.56,9.56,0,0,0,.07,1.37,7.42,7.42,0,0,0,.37,1.58.61.61,0,0,0,.56.13c.26,0,.27-.07.15-.76a15.48,15.48,0,0,1-.26-3.67,6.83,6.83,0,0,1,.43-2.09,6.53,6.53,0,0,0,.22-.7.24.24,0,0,0-.09-.15A.71.71,0,0,0,289.1,221.26Z"/><path class="cls-15" d="M301.56,224.83c0,.1-.09.56-.14,1a10,10,0,0,1-1.73,5.1l-.76,1.38-.46.06a4.74,4.74,0,0,0-1.3.35,7.06,7.06,0,0,0-3.14,2.78,2.7,2.7,0,0,0-.41,1.56c0,1,0,1.26.4,1.42a2.88,2.88,0,0,0,1.82-.2c1.13-.51,2.43-2,3.83-4.47a15,15,0,0,0,1.87-5.69,11.64,11.64,0,0,0,.1-3.5A.5.5,0,0,0,301.56,224.83Z"/><path class="cls-15" d="M301.63,230.14a4.73,4.73,0,0,0-.2,1.17,11.16,11.16,0,0,1-.59,2.86c-.5,1.41-1.66,3.32-2.24,3.54h-.05a5.55,5.55,0,0,0-3,1.58,6.32,6.32,0,0,0-1.92,2.77c-.2.7-.08,1.62.24,1.81.09.05.22.07.74.07a2.63,2.63,0,0,0,.95-.11,3.08,3.08,0,0,0,1.19-.7,16.65,16.65,0,0,0,3.68-5.43,16.35,16.35,0,0,0,1.22-5,20.5,20.5,0,0,0,.05-2.5S301.64,230.12,301.63,230.14Z"/><path class="cls-15" d="M301.55,235.67a5,5,0,0,0-.08.74,9.79,9.79,0,0,1-.39,2.32,12.22,12.22,0,0,1-1.61,3.47c-.44.68-.57.79-1.06.92a6.61,6.61,0,0,0-2.65,1.35,5.1,5.1,0,0,0-2.21,3.9,1.09,1.09,0,0,0,.1.6c.14.26.27.31.93.31a2.72,2.72,0,0,0,2.17-.75,15.7,15.7,0,0,0,4.8-9.87,12.18,12.18,0,0,0,.19-2.95C301.7,235.58,301.62,235.56,301.55,235.67Z"/><path class="cls-15" d="M301.52,241.25a2.19,2.19,0,0,0,0,.47,13.53,13.53,0,0,1-.7,3.5,10.89,10.89,0,0,1-1.89,3.15,1.73,1.73,0,0,1-.51.2,5.24,5.24,0,0,0-1.67.68,7.23,7.23,0,0,0-3,3.47,2.62,2.62,0,0,0,.09,1.89l.11.11h.69a2.68,2.68,0,0,0,2.17-.7,15,15,0,0,0,2.94-4,11.32,11.32,0,0,0,1.43-3.44,18.83,18.83,0,0,0,.63-5.36C301.66,241,301.57,241,301.52,241.25Z"/><path class="cls-15" d="M301.61,246.34a5.5,5.5,0,0,0-.2,1.3,10.62,10.62,0,0,1-1,3.64,14.79,14.79,0,0,1-1.48,2.47c-.14.14-.28.2-.72.28a7.11,7.11,0,0,0-4.19,3.15,4.28,4.28,0,0,0-.53,2.15c0,.45.11.63.37.76a2.73,2.73,0,0,0,1.9-.13c1.15-.5,2.49-2.07,3.88-4.55a14.46,14.46,0,0,0,1.76-5,19.38,19.38,0,0,0,.28-3C301.75,246.43,301.71,246.09,301.61,246.34Z"/><path class="cls-15" d="M295.48,265.49c1.17-.4,2.36-1.65,3.79-3.95a15.37,15.37,0,0,0,2.29-6.44,20.71,20.71,0,0,0,.15-3.32c-.06-.13-.15-.06-.19.14s0,.47-.07.8c-.09,2-.52,3.26-2.08,5.85-.53.87-.4.78-1.1.86a3.62,3.62,0,0,0-2.38,1.18,9.39,9.39,0,0,0-2.08,2.6,4.08,4.08,0,0,0-.26,1.73"/><path class="cls-15" d="M293.66,267.09c2-1.25.45.55,4.5-4.37a18.19,18.19,0,0,0,1.77-3.14c0-.1,0-.14-.1-.08a8.73,8.73,0,0,0-.77,1.15,10.74,10.74,0,0,1-3.78,3.76c-1.16.8-1.34.87-1.73.69"/><line class="cls-14" x1="273.34" y1="392.1" x2="273.34" y2="326.86"/><path class="cls-15" d="M274.53,280a14,14,0,0,0-1.54,3.35,18.43,18.43,0,0,0-.95,5.05,8.42,8.42,0,0,0,1.17,5.38,2.64,2.64,0,0,0,1,.83,1.23,1.23,0,0,0,.66.15.89.89,0,0,0,.53-.11,1.72,1.72,0,0,0,.8-1.05,3.9,3.9,0,0,0,.08-1.2c0-1.95-.23-2.44-1.78-4.05a9.35,9.35,0,0,1-1.22-1.45,4.63,4.63,0,0,1,0-2.45,11.23,11.23,0,0,1,.7-2.3,12.38,12.38,0,0,0,.72-2.05C274.79,279.82,274.72,279.79,274.53,280Z"/><path class="cls-15" d="M273.32,328a5.25,5.25,0,0,0-1.53-2.43,7.22,7.22,0,0,0-2.42-1.61,4.72,4.72,0,0,0-.53-.11,1.62,1.62,0,0,1-1-.47c-1.32-1.22-2-3.51-2.21-7.59l0-.44.23.83a17.31,17.31,0,0,0,1.32,3.38c1.14,2.27,2.77,4.22,4,4.77a2.42,2.42,0,0,0,1.24.27c.63,0,.79-.06.93-.33s.09-.25.09-.79a3.05,3.05,0,0,0-.12-1,6,6,0,0,0-1.42-2.27,5.64,5.64,0,0,0-2.06-1.42,5.11,5.11,0,0,0-1.24-.4c-.17,0-.24-.07-.52-.33a4.43,4.43,0,0,1-.58-.65,11.31,11.31,0,0,1-1.43-2.84,26.06,26.06,0,0,1-.4-3.95q0-1.14.09-.66c0,.09.19.64.36,1.21a17.3,17.3,0,0,0,1.53,3.86,11.71,11.71,0,0,0,2.13,2.85,3.72,3.72,0,0,0,2.8,1.31c.68,0,.85-.21.88-.89a3.82,3.82,0,0,0-.59-2.17,6.32,6.32,0,0,0-1.34-1.63A5.77,5.77,0,0,0,269,313c-.78-.2-.85-.26-1.48-1.18a8.76,8.76,0,0,1-1.78-5.41c-.06-.84-.09-2.17-.07-2.12s.13.37.26.79c1.16,3.58,1.84,5,3.19,6.56a5.72,5.72,0,0,0,2.43,1.91,2.15,2.15,0,0,0,.83.1,1.47,1.47,0,0,0,.71-.08c.3-.14.35-.28.35-1A3,3,0,0,0,273,311a6.36,6.36,0,0,0-1.59-2.07,5.92,5.92,0,0,0-2.53-1.39c-.77-.2-.86-.28-1.69-1.44a5.73,5.73,0,0,1-1.12-2.2,19,19,0,0,1-.47-4.35l0-.77.09.28c.05.15.22.69.37,1.2a20.15,20.15,0,0,0,1.58,4,10,10,0,0,0,3.26,3.64,2.61,2.61,0,0,0,1.47.34c.78,0,.81,0,.94-.34a3.56,3.56,0,0,0-.38-2.58,6.91,6.91,0,0,0-4.12-3.17,2.22,2.22,0,0,1-.49-.18,8.19,8.19,0,0,1-1.67-2.05,9.3,9.3,0,0,1-.92-3.64c0-.49-.13-2.36-.13-2.72v-.2l.08.28a23,23,0,0,0,2,5.17,11.54,11.54,0,0,0,1.89,2.57,6.31,6.31,0,0,0,1.94,1.44c.85.37,1.5.28,1.79-.26.09-.17.1-.24.1-.76a2.41,2.41,0,0,0-.12-1,5.71,5.71,0,0,0-.93-1.69,10.8,10.8,0,0,0-1.59-1.5,4.69,4.69,0,0,0-2-1,1.18,1.18,0,0,1-.42-.12,4.92,4.92,0,0,1-1-1.11c-1.24-1.68-1.61-3.1-1.71-6.48a3.59,3.59,0,0,1,0-.93,9.21,9.21,0,0,1,.51,1.58,15.1,15.1,0,0,0,3.11,6,5.4,5.4,0,0,0,2.89,1.93,1.11,1.11,0,0,0,.55,0c.53-.14.73-.47.73-1.16a3.49,3.49,0,0,0-.25-1.31,5.7,5.7,0,0,0-1.67-2.28,5.64,5.64,0,0,0-2.79-1.61,1.38,1.38,0,0,1-.88-.55,7.46,7.46,0,0,1-1.53-2.45,14.18,14.18,0,0,1-.7-4.55,5.49,5.49,0,0,0-.13-1.64s-.06.05-.08.14a17.33,17.33,0,0,0-.08,4.07,12.38,12.38,0,0,1,0,2.66,10.76,10.76,0,0,0,0,2.67,13,13,0,0,1,0,2.8,10.77,10.77,0,0,0,0,2.67,12.31,12.31,0,0,1,0,2.72,11.46,11.46,0,0,0,0,2.75,12.25,12.25,0,0,1,0,2.71,10.44,10.44,0,0,0,0,2.74,11.67,11.67,0,0,1,0,2.65,11.75,11.75,0,0,0,0,2.57,13.83,13.83,0,0,1,.07,1.72,35.56,35.56,0,0,0,.39,5.25,8.49,8.49,0,0,0,.48,2.38c.65,1.86,2.43,3.09,3.44,4.36"/><path class="cls-15" d="M277.72,282.34c-.07.11-.05.19.16,1.06a10.14,10.14,0,0,1,.35,2.34,14.71,14.71,0,0,1-.63,4.56c-.27,1-.27,1,.08,1s.44-.12.68-.71a17.49,17.49,0,0,0,.74-4.17,11.91,11.91,0,0,0-.6-3.66,1.79,1.79,0,0,0-.14-.46.63.63,0,0,0-.32-.05C277.82,282.26,277.76,282.27,277.72,282.34Z"/><path class="cls-15" d="M269.26,282.73c-.08,0-.14.25-.37,1.32a9.72,9.72,0,0,0-.44,3,9.08,9.08,0,0,0,.08,1.37,7.42,7.42,0,0,0,.37,1.58.6.6,0,0,0,.56.13c.26,0,.27-.07.15-.75a16.19,16.19,0,0,1-.27-3.68,6.85,6.85,0,0,1,.44-2.08c.11-.35.21-.66.21-.7a.27.27,0,0,0-.08-.16A.71.71,0,0,0,269.26,282.73Z"/><path class="cls-15" d="M281.72,286.29c0,.1-.09.57-.14,1a10.17,10.17,0,0,1-1.73,5.1l-.76,1.38-.46.06a4.05,4.05,0,0,0-1.3.35,7,7,0,0,0-3.14,2.77,2.7,2.7,0,0,0-.41,1.56c0,1,0,1.27.39,1.42a2.82,2.82,0,0,0,1.83-.19c1.12-.51,2.42-2,3.83-4.48a15.16,15.16,0,0,0,1.86-5.68,11.79,11.79,0,0,0,.11-3.5S281.75,286.19,281.72,286.29Z"/><path class="cls-15" d="M281.79,291.61a3.86,3.86,0,0,0-.21,1.17,11.11,11.11,0,0,1-.58,2.85c-.51,1.42-1.67,3.32-2.25,3.55h0a5.6,5.6,0,0,0-3,1.59,6.35,6.35,0,0,0-1.91,2.76c-.21.71-.08,1.63.23,1.81.1.06.22.07.75.07a2.24,2.24,0,0,0,1-.11,3,3,0,0,0,1.19-.7,16.7,16.7,0,0,0,3.68-5.42,16.35,16.35,0,0,0,1.22-5,20.48,20.48,0,0,0,.05-2.5S281.8,291.59,281.79,291.61Z"/><path class="cls-15" d="M281.71,297.13a4.66,4.66,0,0,0-.09.74,9,9,0,0,1-.39,2.33,11.87,11.87,0,0,1-1.6,3.46c-.45.68-.57.79-1.07.92a6.57,6.57,0,0,0-2.64,1.35,5.11,5.11,0,0,0-2.21,3.91c0,.35,0,.44.1.59s.27.32.92.32a2.75,2.75,0,0,0,2.18-.75,16.66,16.66,0,0,0,3.5-4.95,16.34,16.34,0,0,0,1.3-4.93,11.47,11.47,0,0,0,.18-2.95C281.85,297,281.78,297,281.71,297.13Z"/><path class="cls-15" d="M281.68,302.72a2.09,2.09,0,0,0-.05.46,13.45,13.45,0,0,1-.7,3.5,10.89,10.89,0,0,1-1.89,3.15,1.31,1.31,0,0,1-.51.2,5.4,5.4,0,0,0-1.68.68,7.31,7.31,0,0,0-3,3.47,2.62,2.62,0,0,0,.09,1.89l.1.12h.69a2.72,2.72,0,0,0,2.17-.7,14.82,14.82,0,0,0,2.94-4,11.32,11.32,0,0,0,1.44-3.44,18.41,18.41,0,0,0,.62-5.37C281.81,302.46,281.73,302.49,281.68,302.72Z"/><path class="cls-15" d="M281.76,307.8a6.31,6.31,0,0,0-.2,1.31,10.67,10.67,0,0,1-.94,3.64,14.79,14.79,0,0,1-1.48,2.47c-.14.14-.28.19-.72.28a7,7,0,0,0-4.19,3.14,4.4,4.4,0,0,0-.54,2.15c0,.46.12.64.38.76a2.63,2.63,0,0,0,1.89-.12c1.16-.5,2.5-2.07,3.88-4.55a14.33,14.33,0,0,0,1.77-5.06,19.38,19.38,0,0,0,.28-2.94C281.91,307.89,281.87,307.55,281.76,307.8Z"/><path class="cls-15" d="M275.64,327c1.17-.4,2.36-1.64,3.79-3.94a15.55,15.55,0,0,0,2.29-6.45,19.26,19.26,0,0,0,.14-3.32c-.05-.13-.14-.06-.18.14a5.57,5.57,0,0,0-.07.8c-.09,2.05-.52,3.26-2.08,5.85-.53.88-.41.78-1.1.86a3.61,3.61,0,0,0-2.38,1.19,9.12,9.12,0,0,0-2.08,2.6,4,4,0,0,0-.26,1.72"/><path class="cls-15" d="M273.81,328.55c2-1.24.46.56,4.51-4.36a18.61,18.61,0,0,0,1.76-3.15c0-.1,0-.14-.1-.08a10.13,10.13,0,0,0-.76,1.16,10.72,10.72,0,0,1-3.78,3.75c-1.16.8-1.34.88-1.74.7"/><line class="cls-14" x1="316.99" y1="372.05" x2="316.99" y2="306.82"/><path class="cls-15" d="M318.18,259.94a15.15,15.15,0,0,0-1.54,3.36,19.14,19.14,0,0,0-.95,5,8.39,8.39,0,0,0,1.18,5.39,2.57,2.57,0,0,0,1,.83,1.17,1.17,0,0,0,.65.15.89.89,0,0,0,.53-.11,1.76,1.76,0,0,0,.81-1.06,4.35,4.35,0,0,0,.07-1.19c0-2-.22-2.45-1.78-4.05a10.57,10.57,0,0,1-1.22-1.45,4.56,4.56,0,0,1,0-2.45,11.12,11.12,0,0,1,.69-2.3,11.34,11.34,0,0,0,.72-2.06C318.44,259.78,318.37,259.74,318.18,259.94Z"/><path class="cls-15" d="M317,307.93a5.27,5.27,0,0,0-1.53-2.44,7.23,7.23,0,0,0-2.42-1.6,4.72,4.72,0,0,0-.53-.11,1.57,1.57,0,0,1-1-.47c-1.32-1.22-2-3.51-2.21-7.6l0-.43.24.83a16.67,16.67,0,0,0,1.31,3.38c1.15,2.27,2.78,4.22,4,4.77a2.4,2.4,0,0,0,1.24.27c.62,0,.79-.06.92-.34s.1-.24.09-.79a2.78,2.78,0,0,0-.12-1,5.91,5.91,0,0,0-1.41-2.27,5.56,5.56,0,0,0-2.07-1.42,4.77,4.77,0,0,0-1.23-.4c-.17,0-.24-.07-.52-.33a5.1,5.1,0,0,1-.59-.65,11.65,11.65,0,0,1-1.43-2.84,29,29,0,0,1-.4-3.95c0-.76,0-1,.1-.67l.36,1.22a16.57,16.57,0,0,0,1.53,3.86,11.59,11.59,0,0,0,2.13,2.85,3.64,3.64,0,0,0,2.8,1.3c.67,0,.84-.2.87-.88a3.8,3.8,0,0,0-.58-2.17,6.53,6.53,0,0,0-1.34-1.63,5.8,5.8,0,0,0-2.54-1.44c-.77-.2-.85-.26-1.48-1.18a8.82,8.82,0,0,1-1.78-5.41c-.05-.84-.09-2.17-.06-2.12s.13.37.26.78c1.16,3.59,1.83,5,3.18,6.56a5.7,5.7,0,0,0,2.44,1.92,2.16,2.16,0,0,0,.82.09,1.44,1.44,0,0,0,.72-.07c.29-.14.35-.29.35-1a3.19,3.19,0,0,0-.37-1.6,6.22,6.22,0,0,0-1.59-2.06,5.89,5.89,0,0,0-2.52-1.39c-.77-.2-.87-.28-1.7-1.44a5.7,5.7,0,0,1-1.12-2.21,20.13,20.13,0,0,1-.47-4.34l0-.77.1.27c0,.15.21.7.37,1.2a20.7,20.7,0,0,0,1.57,4,10,10,0,0,0,3.26,3.64,2.73,2.73,0,0,0,1.48.34c.77,0,.81,0,.94-.34a3.62,3.62,0,0,0-.39-2.58,6.85,6.85,0,0,0-4.11-3.17,2.29,2.29,0,0,1-.5-.19,8.53,8.53,0,0,1-1.67-2,9.43,9.43,0,0,1-.91-3.65c0-.48-.14-2.36-.13-2.71v-.2l.09.28a22.88,22.88,0,0,0,2,5.17,11,11,0,0,0,1.9,2.56,6.14,6.14,0,0,0,1.94,1.45c.84.37,1.49.28,1.79-.26.09-.17.1-.24.1-.76a2.39,2.39,0,0,0-.13-1,5.73,5.73,0,0,0-.92-1.7,11.38,11.38,0,0,0-1.6-1.49,4.54,4.54,0,0,0-2-1,1.09,1.09,0,0,1-.42-.13,4.29,4.29,0,0,1-1-1.11c-1.25-1.68-1.62-3.09-1.72-6.47a3.15,3.15,0,0,1,0-.93,10.07,10.07,0,0,1,.51,1.57,15.26,15.26,0,0,0,3.1,6.05,5.46,5.46,0,0,0,2.89,1.92,1,1,0,0,0,.55,0c.53-.13.74-.46.73-1.16a3.09,3.09,0,0,0-.25-1.3,7.28,7.28,0,0,0-4.45-3.89,1.4,1.4,0,0,1-.89-.55,7.37,7.37,0,0,1-1.52-2.45,13.9,13.9,0,0,1-.71-4.56c0-1.25-.07-1.59-.13-1.63s-.06.05-.08.13a18.58,18.58,0,0,0-.08,4.08,11.76,11.76,0,0,1,0,2.66,10.76,10.76,0,0,0,0,2.67,11.75,11.75,0,0,1,0,2.79,10.84,10.84,0,0,0,0,2.68,11.12,11.12,0,0,1,0,2.71,11.55,11.55,0,0,0,0,2.76,11.15,11.15,0,0,1,0,2.71,11.38,11.38,0,0,0,0,2.74,10.62,10.62,0,0,1,0,2.65,11.67,11.67,0,0,0,0,2.57,16.8,16.8,0,0,1,.06,1.72,36,36,0,0,0,.4,5.25,7.82,7.82,0,0,0,.48,2.38c.64,1.85,2.42,3.09,3.43,4.36"/><path class="cls-15" d="M321.38,262.29c-.07.12-.06.2.15,1.06a9.7,9.7,0,0,1,.35,2.35,14.6,14.6,0,0,1-.62,4.55c-.28,1.05-.28,1,.07,1s.44-.12.68-.71a17.09,17.09,0,0,0,.74-4.17,11.91,11.91,0,0,0-.6-3.66,1.65,1.65,0,0,0-.14-.46.55.55,0,0,0-.31,0C321.47,262.22,321.41,262.23,321.38,262.29Z"/><path class="cls-15" d="M312.91,262.68c-.08.06-.13.26-.37,1.32a10,10,0,0,0-.43,3,8,8,0,0,0,.08,1.37,7,7,0,0,0,.36,1.58.61.61,0,0,0,.56.13c.26,0,.27-.07.15-.76a15.48,15.48,0,0,1-.26-3.67,6.89,6.89,0,0,1,.43-2.09,5.86,5.86,0,0,0,.22-.7.24.24,0,0,0-.09-.15A.71.71,0,0,0,312.91,262.68Z"/><path class="cls-15" d="M325.37,266.25c0,.1-.09.56-.14,1a10.08,10.08,0,0,1-1.73,5.11l-.76,1.37-.46.07a4.13,4.13,0,0,0-1.3.35,7,7,0,0,0-3.13,2.77,2.63,2.63,0,0,0-.42,1.56c0,1,0,1.26.4,1.42a2.88,2.88,0,0,0,1.82-.2c1.13-.51,2.43-2,3.84-4.47a15.21,15.21,0,0,0,1.86-5.69,12.18,12.18,0,0,0,.11-3.5S325.4,266.15,325.37,266.25Z"/><path class="cls-15" d="M325.44,271.56a4.73,4.73,0,0,0-.2,1.17,11.16,11.16,0,0,1-.59,2.86c-.5,1.41-1.66,3.32-2.24,3.55h-.05a5.51,5.51,0,0,0-3,1.59,6.24,6.24,0,0,0-1.92,2.76c-.2.71-.08,1.62.24,1.81.09.06.22.07.74.07a2.42,2.42,0,0,0,.95-.11,3.08,3.08,0,0,0,1.19-.7,16.5,16.5,0,0,0,4.9-10.46,18.61,18.61,0,0,0,.05-2.5S325.46,271.54,325.44,271.56Z"/><path class="cls-15" d="M325.36,277.09a5,5,0,0,0-.08.74,9.47,9.47,0,0,1-.39,2.33,12.54,12.54,0,0,1-1.6,3.46c-.45.68-.58.79-1.07.92a6.61,6.61,0,0,0-2.65,1.35,5.1,5.1,0,0,0-2.21,3.9,1.09,1.09,0,0,0,.1.6c.14.26.27.31.93.31a2.72,2.72,0,0,0,2.17-.75,16.25,16.25,0,0,0,3.5-4.94,16.42,16.42,0,0,0,1.3-4.93,12.18,12.18,0,0,0,.19-2.95C325.51,277,325.43,277,325.36,277.09Z"/><path class="cls-15" d="M325.33,282.67a2.19,2.19,0,0,0-.05.47,13.53,13.53,0,0,1-.7,3.5,10.89,10.89,0,0,1-1.89,3.15,1.49,1.49,0,0,1-.51.2,5.24,5.24,0,0,0-1.67.68,7.2,7.2,0,0,0-3,3.47,2.62,2.62,0,0,0,.08,1.89l.11.12h.69a2.71,2.71,0,0,0,2.17-.69,15.2,15.2,0,0,0,2.94-4,11.47,11.47,0,0,0,1.43-3.45,18.46,18.46,0,0,0,.63-5.36C325.47,282.42,325.38,282.45,325.33,282.67Z"/><path class="cls-15" d="M325.42,287.76a5.53,5.53,0,0,0-.2,1.31,10.78,10.78,0,0,1-.94,3.63,15.45,15.45,0,0,1-1.49,2.47c-.14.14-.28.2-.72.28a7.06,7.06,0,0,0-4.18,3.15,4.19,4.19,0,0,0-.54,2.15c0,.46.11.63.37.76a2.73,2.73,0,0,0,1.9-.13c1.15-.5,2.49-2.07,3.88-4.55a14.61,14.61,0,0,0,1.77-5.05,19.36,19.36,0,0,0,.27-2.94C325.56,287.85,325.52,287.51,325.42,287.76Z"/><path class="cls-15" d="M319.3,306.91c1.16-.4,2.35-1.65,3.79-4a15.45,15.45,0,0,0,2.28-6.44,20.71,20.71,0,0,0,.15-3.32c-.06-.13-.15-.06-.19.14s-.05.47-.07.8c-.09,2.05-.52,3.26-2.08,5.85-.52.87-.4.78-1.1.86A3.63,3.63,0,0,0,319.7,302a9.12,9.12,0,0,0-2.08,2.6,4,4,0,0,0-.26,1.72"/><path class="cls-15" d="M317.47,308.51c2-1.25.45.55,4.5-4.36a18.55,18.55,0,0,0,1.77-3.15c0-.1,0-.14-.1-.08a9.57,9.57,0,0,0-.77,1.16,10.8,10.8,0,0,1-3.78,3.75c-1.16.8-1.34.87-1.73.69"/><line class="cls-14" x1="297.15" y1="422.83" x2="297.15" y2="357.6"/><path class="cls-15" d="M298.34,310.72a14.37,14.37,0,0,0-1.54,3.35,18.43,18.43,0,0,0-.95,5.05A8.42,8.42,0,0,0,297,324.5a2.71,2.71,0,0,0,1,.84,1.16,1.16,0,0,0,.65.14.9.9,0,0,0,.53-.1,1.74,1.74,0,0,0,.8-1.06,3.86,3.86,0,0,0,.08-1.2c0-1.95-.22-2.44-1.78-4.05a9.35,9.35,0,0,1-1.22-1.45,4.6,4.6,0,0,1,0-2.44,11.5,11.5,0,0,1,.7-2.3,11.62,11.62,0,0,0,.72-2.06C298.6,310.55,298.53,310.52,298.34,310.72Z"/><path class="cls-15" d="M297.13,358.7a5.3,5.3,0,0,0-1.53-2.43,7.27,7.27,0,0,0-2.42-1.61,4.72,4.72,0,0,0-.53-.11,1.57,1.57,0,0,1-1-.47c-1.32-1.22-2-3.5-2.21-7.59l0-.43.24.82a17,17,0,0,0,1.31,3.39c1.14,2.27,2.78,4.22,4,4.77a2.36,2.36,0,0,0,1.23.26c.63,0,.79-.06.93-.33s.09-.25.09-.79a3,3,0,0,0-.12-1,5.87,5.87,0,0,0-1.42-2.27,5.57,5.57,0,0,0-2.06-1.43,5.11,5.11,0,0,0-1.24-.4c-.17,0-.24-.07-.52-.33a5.09,5.09,0,0,1-.58-.65,11.14,11.14,0,0,1-1.43-2.84,26.06,26.06,0,0,1-.4-3.95q0-1.14.09-.66c0,.1.2.64.36,1.22a17.4,17.4,0,0,0,1.53,3.85,11.71,11.71,0,0,0,2.13,2.85,3.72,3.72,0,0,0,2.8,1.31c.68,0,.85-.21.88-.89a3.79,3.79,0,0,0-.59-2.16,6.2,6.2,0,0,0-1.34-1.64,5.75,5.75,0,0,0-2.53-1.43c-.77-.21-.85-.27-1.48-1.19a8.71,8.71,0,0,1-1.78-5.4c-.05-.85-.09-2.18-.07-2.13s.13.38.26.79c1.16,3.59,1.84,5,3.19,6.56a5.72,5.72,0,0,0,2.44,1.92,2.32,2.32,0,0,0,.82.09,1.55,1.55,0,0,0,.72-.08c.29-.14.34-.28.34-1a3,3,0,0,0-.36-1.59,6.36,6.36,0,0,0-1.59-2.07,5.79,5.79,0,0,0-2.53-1.38c-.76-.21-.86-.29-1.69-1.44a5.84,5.84,0,0,1-1.12-2.21,19,19,0,0,1-.47-4.35l0-.77.09.28.38,1.2a19.59,19.59,0,0,0,1.57,3.95,9.91,9.91,0,0,0,3.26,3.64,2.61,2.61,0,0,0,1.47.34c.78,0,.82,0,.95-.34a3.6,3.6,0,0,0-.39-2.57,6.86,6.86,0,0,0-4.12-3.18,2.44,2.44,0,0,1-.49-.18,8.19,8.19,0,0,1-1.67-2.05,9.32,9.32,0,0,1-.91-3.64c-.05-.49-.14-2.36-.13-2.72v-.19l.08.27a23,23,0,0,0,2,5.17,11.54,11.54,0,0,0,1.89,2.57,6.22,6.22,0,0,0,1.95,1.44c.84.38,1.49.28,1.78-.26.09-.17.1-.24.1-.76a2.44,2.44,0,0,0-.12-1,5.84,5.84,0,0,0-.93-1.69,10.32,10.32,0,0,0-1.59-1.5,4.81,4.81,0,0,0-2-1,1.24,1.24,0,0,1-.42-.12,4.92,4.92,0,0,1-1-1.11c-1.24-1.68-1.61-3.1-1.71-6.48a3,3,0,0,1,0-.92,10.6,10.6,0,0,1,.5,1.57,15.34,15.34,0,0,0,3.11,6.05A5.43,5.43,0,0,0,296,328.3a1.11,1.11,0,0,0,.55,0c.53-.14.73-.47.73-1.16a3.26,3.26,0,0,0-.25-1.3,7.24,7.24,0,0,0-4.46-3.9,1.34,1.34,0,0,1-.88-.55,7.52,7.52,0,0,1-1.53-2.44,14.3,14.3,0,0,1-.7-4.56,5.49,5.49,0,0,0-.13-1.64s-.06,0-.08.14a18,18,0,0,0-.08,4.08,11.67,11.67,0,0,1,0,2.65,10.85,10.85,0,0,0,0,2.68,11.75,11.75,0,0,1,0,2.79,10.77,10.77,0,0,0,0,2.67,11.19,11.19,0,0,1,0,2.72,11.46,11.46,0,0,0,0,2.75,11.23,11.23,0,0,1,0,2.72,10.37,10.37,0,0,0,0,2.73,10.7,10.7,0,0,1,0,2.66,11,11,0,0,0,0,2.56,16.94,16.94,0,0,1,.06,1.72,34.74,34.74,0,0,0,.4,5.26,8.29,8.29,0,0,0,.47,2.38c.65,1.85,2.43,3.09,3.44,4.36"/><path class="cls-15" d="M301.53,313.07c-.07.12,0,.19.16,1.06a9.62,9.62,0,0,1,.35,2.34,15,15,0,0,1-.62,4.56c-.28,1.05-.28,1,.07,1s.44-.12.68-.7a17.68,17.68,0,0,0,.74-4.18,11.91,11.91,0,0,0-.6-3.66,2,2,0,0,0-.14-.46.63.63,0,0,0-.32-.05C301.63,313,301.57,313,301.53,313.07Z"/><path class="cls-15" d="M293.07,313.46c-.08.05-.14.26-.37,1.32a9.72,9.72,0,0,0-.44,3,9.33,9.33,0,0,0,.08,1.38,7.08,7.08,0,0,0,.37,1.57.58.58,0,0,0,.56.13c.26,0,.27-.07.15-.75a16.19,16.19,0,0,1-.27-3.68,7.16,7.16,0,0,1,.44-2.08,6.53,6.53,0,0,0,.22-.7.24.24,0,0,0-.09-.15A.71.71,0,0,0,293.07,313.46Z"/><path class="cls-15" d="M305.53,317c0,.09-.09.56-.14,1a10.14,10.14,0,0,1-1.73,5.1l-.76,1.38-.46.06a4.33,4.33,0,0,0-1.3.35,7,7,0,0,0-3.14,2.78,2.7,2.7,0,0,0-.41,1.56c0,1,0,1.26.4,1.42a2.88,2.88,0,0,0,1.82-.2c1.12-.51,2.43-2,3.83-4.48a15,15,0,0,0,1.86-5.68,11.8,11.8,0,0,0,.11-3.5A.5.5,0,0,0,305.53,317Z"/><path class="cls-15" d="M305.6,322.34a4.05,4.05,0,0,0-.2,1.17,11.41,11.41,0,0,1-.59,2.85c-.51,1.42-1.67,3.33-2.25,3.55h0a5.54,5.54,0,0,0-3,1.58,6.35,6.35,0,0,0-1.91,2.76c-.2.71-.08,1.63.23,1.82a1.9,1.9,0,0,0,.75.06,2.47,2.47,0,0,0,.95-.1,3.21,3.21,0,0,0,1.19-.7,16.75,16.75,0,0,0,3.68-5.43,16.35,16.35,0,0,0,1.22-5,20.34,20.34,0,0,0,.05-2.49S305.61,322.32,305.6,322.34Z"/><path class="cls-15" d="M305.52,327.87a4.83,4.83,0,0,0-.08.74,9.41,9.41,0,0,1-.4,2.32,11.92,11.92,0,0,1-1.6,3.47c-.44.68-.57.78-1.07.92a6.33,6.33,0,0,0-2.64,1.35,5.08,5.08,0,0,0-2.21,3.9,1,1,0,0,0,.1.6c.14.26.27.31.93.31a2.74,2.74,0,0,0,2.17-.75,15.69,15.69,0,0,0,4.8-9.88,11.41,11.41,0,0,0,.18-2.94C305.67,327.78,305.59,327.76,305.52,327.87Z"/><path class="cls-15" d="M305.49,333.45a2.16,2.16,0,0,0-.05.46,13.37,13.37,0,0,1-.7,3.5,10.75,10.75,0,0,1-1.89,3.15,1.47,1.47,0,0,1-.51.21,5.16,5.16,0,0,0-1.68.68,7.22,7.22,0,0,0-3,3.47,2.59,2.59,0,0,0,.09,1.88l.1.12h.69a2.69,2.69,0,0,0,2.17-.7,14.62,14.62,0,0,0,2.94-4,11.22,11.22,0,0,0,1.44-3.44,18.89,18.89,0,0,0,.63-5.37C305.63,333.19,305.54,333.22,305.49,333.45Z"/><path class="cls-15" d="M305.57,338.53a6.31,6.31,0,0,0-.2,1.31,10.39,10.39,0,0,1-.94,3.64A14.79,14.79,0,0,1,303,346c-.14.14-.28.19-.72.28a7,7,0,0,0-4.19,3.14,4.45,4.45,0,0,0-.54,2.15c0,.46.12.64.38.77a2.7,2.7,0,0,0,1.89-.13c1.16-.5,2.5-2.07,3.89-4.55a14.46,14.46,0,0,0,1.76-5.05,19.51,19.51,0,0,0,.28-2.95C305.72,338.62,305.68,338.28,305.57,338.53Z"/><path class="cls-15" d="M299.45,357.68c1.17-.4,2.36-1.64,3.79-3.94a15.37,15.37,0,0,0,2.29-6.44,19.32,19.32,0,0,0,.14-3.32c-.05-.13-.14-.07-.18.14s-.05.47-.07.8c-.09,2-.52,3.26-2.08,5.84-.53.88-.41.78-1.1.86a3.66,3.66,0,0,0-2.38,1.19,9.39,9.39,0,0,0-2.08,2.6,4,4,0,0,0-.26,1.72"/><path class="cls-15" d="M297.63,359.28c2-1.24.45.56,4.5-4.36a18.3,18.3,0,0,0,1.76-3.14c0-.11,0-.14-.1-.08a9.56,9.56,0,0,0-.76,1.15,10.74,10.74,0,0,1-3.78,3.76c-1.16.8-1.34.87-1.73.69"/><line class="cls-14" x1="350.07" y1="400.11" x2="350.07" y2="334.88"/><path class="cls-15" d="M351.26,288a14.63,14.63,0,0,0-1.55,3.36,19.14,19.14,0,0,0-.95,5,8.39,8.39,0,0,0,1.18,5.39,2.57,2.57,0,0,0,1,.83,1.19,1.19,0,0,0,.65.15.89.89,0,0,0,.53-.11,1.76,1.76,0,0,0,.81-1.06,3.94,3.94,0,0,0,.07-1.19c0-2-.22-2.45-1.77-4.05a10.14,10.14,0,0,1-1.23-1.45,4.67,4.67,0,0,1,0-2.45,10.64,10.64,0,0,1,.7-2.3,11.76,11.76,0,0,0,.71-2.06C351.51,287.84,351.44,287.8,351.26,288Z"/><path class="cls-15" d="M350,336a5.27,5.27,0,0,0-1.53-2.44,7.23,7.23,0,0,0-2.42-1.6,4.72,4.72,0,0,0-.53-.11,1.57,1.57,0,0,1-1-.47c-1.32-1.22-2-3.51-2.21-7.6l0-.43.23.83a16.67,16.67,0,0,0,1.31,3.38c1.15,2.27,2.78,4.22,4,4.77a2.4,2.4,0,0,0,1.24.27c.62,0,.79-.06.93-.34s.09-.24.08-.79a2.81,2.81,0,0,0-.11-1,5.94,5.94,0,0,0-1.42-2.27,5.56,5.56,0,0,0-2.07-1.42,4.77,4.77,0,0,0-1.23-.4c-.17,0-.24-.07-.52-.33a5.1,5.1,0,0,1-.59-.65,11.65,11.65,0,0,1-1.43-2.84,29,29,0,0,1-.4-3.95c0-.76,0-1,.1-.67l.36,1.22a17,17,0,0,0,1.53,3.86,11.59,11.59,0,0,0,2.13,2.85,3.64,3.64,0,0,0,2.8,1.3c.67,0,.84-.2.87-.88a3.8,3.8,0,0,0-.58-2.17,6.53,6.53,0,0,0-1.34-1.63,5.8,5.8,0,0,0-2.54-1.44c-.77-.2-.85-.26-1.48-1.18a8.82,8.82,0,0,1-1.78-5.41c-.05-.84-.09-2.17-.06-2.12s.13.37.26.78c1.16,3.59,1.83,5,3.18,6.56a5.7,5.7,0,0,0,2.44,1.92,2.16,2.16,0,0,0,.82.09,1.44,1.44,0,0,0,.72-.07c.3-.14.35-.29.35-1a3.19,3.19,0,0,0-.37-1.6,6.22,6.22,0,0,0-1.59-2.06,5.89,5.89,0,0,0-2.52-1.39c-.77-.2-.87-.28-1.7-1.44a5.7,5.7,0,0,1-1.12-2.21,20.13,20.13,0,0,1-.47-4.34l0-.77.09.27c0,.15.21.7.37,1.2a20,20,0,0,0,1.58,4,9.89,9.89,0,0,0,3.25,3.64,2.73,2.73,0,0,0,1.48.34c.77,0,.81,0,.94-.34a3.62,3.62,0,0,0-.39-2.58,6.85,6.85,0,0,0-4.11-3.17,2.29,2.29,0,0,1-.5-.19,8.3,8.3,0,0,1-1.66-2,9.41,9.41,0,0,1-.92-3.65c-.05-.48-.14-2.36-.13-2.71v-.2l.09.28a22.27,22.27,0,0,0,2,5.17,10.69,10.69,0,0,0,1.89,2.56,6.25,6.25,0,0,0,1.94,1.45c.85.37,1.49.28,1.79-.26.09-.17.1-.24.1-.76a2.39,2.39,0,0,0-.13-1,5.73,5.73,0,0,0-.92-1.7,11.38,11.38,0,0,0-1.6-1.49,4.54,4.54,0,0,0-2-1,1.16,1.16,0,0,1-.42-.13,4.48,4.48,0,0,1-1-1.11c-1.24-1.68-1.62-3.09-1.72-6.47a3.72,3.72,0,0,1,0-.93,10.07,10.07,0,0,1,.51,1.57,15.14,15.14,0,0,0,3.11,6.05,5.41,5.41,0,0,0,2.88,1.92,1,1,0,0,0,.55,0c.53-.13.74-.46.73-1.16a3.24,3.24,0,0,0-.24-1.3,5.83,5.83,0,0,0-1.67-2.28,5.69,5.69,0,0,0-2.79-1.61,1.4,1.4,0,0,1-.89-.55,7.37,7.37,0,0,1-1.52-2.45,13.93,13.93,0,0,1-.7-4.56c0-1.25-.07-1.59-.14-1.63s-.06.05-.08.13a18.58,18.58,0,0,0-.08,4.08,11.2,11.2,0,0,1,0,2.66,10.76,10.76,0,0,0,0,2.67,11.75,11.75,0,0,1,0,2.79,10.84,10.84,0,0,0,0,2.68,11.12,11.12,0,0,1,0,2.71,11.55,11.55,0,0,0,0,2.76,11.15,11.15,0,0,1,0,2.71,11.38,11.38,0,0,0,0,2.74,10.62,10.62,0,0,1,0,2.65,11.67,11.67,0,0,0,0,2.57,16.8,16.8,0,0,1,.06,1.72,37.54,37.54,0,0,0,.4,5.25,8.14,8.14,0,0,0,.48,2.38c.64,1.85,2.42,3.09,3.43,4.36"/><path class="cls-15" d="M354.45,290.35c-.07.12-.06.2.15,1.06a9.7,9.7,0,0,1,.35,2.35,14.6,14.6,0,0,1-.62,4.55c-.27,1.05-.28,1,.07,1s.44-.12.68-.71a17.09,17.09,0,0,0,.74-4.17,11.58,11.58,0,0,0-.6-3.66,1.65,1.65,0,0,0-.14-.46.55.55,0,0,0-.31-.05C354.54,290.28,354.49,290.29,354.45,290.35Z"/><path class="cls-15" d="M346,290.74c-.09.06-.14.26-.38,1.32a10,10,0,0,0-.43,3,8,8,0,0,0,.08,1.37,6.28,6.28,0,0,0,.37,1.58.6.6,0,0,0,.56.13c.26,0,.26-.07.14-.76a15.48,15.48,0,0,1-.26-3.67,6.89,6.89,0,0,1,.43-2.09,5.86,5.86,0,0,0,.22-.7.24.24,0,0,0-.09-.15A.69.69,0,0,0,346,290.74Z"/><path class="cls-15" d="M358.44,294.31c0,.1-.09.56-.13,1a10.19,10.19,0,0,1-1.74,5.11l-.76,1.37-.46.07a4,4,0,0,0-1.29.35,7,7,0,0,0-3.14,2.77,2.63,2.63,0,0,0-.42,1.56c0,1,0,1.26.4,1.42a2.87,2.87,0,0,0,1.82-.2c1.13-.51,2.43-2,3.84-4.47a15.21,15.21,0,0,0,1.86-5.69,12.18,12.18,0,0,0,.11-3.5S358.47,294.21,358.44,294.31Z"/><path class="cls-15" d="M358.51,299.62a4.73,4.73,0,0,0-.2,1.17,10.75,10.75,0,0,1-.59,2.86c-.5,1.41-1.66,3.32-2.24,3.55h-.05a5.55,5.55,0,0,0-3,1.59,6.32,6.32,0,0,0-1.92,2.76c-.2.71-.08,1.62.24,1.81.09.06.22.07.74.07a2.42,2.42,0,0,0,.95-.11,3.08,3.08,0,0,0,1.19-.7,16.66,16.66,0,0,0,3.69-5.43,16.36,16.36,0,0,0,1.21-5,17,17,0,0,0,.05-2.5S358.53,299.6,358.51,299.62Z"/><path class="cls-15" d="M358.44,305.15a3.55,3.55,0,0,0-.09.74,9.47,9.47,0,0,1-.39,2.33,12.54,12.54,0,0,1-1.6,3.46c-.45.68-.58.79-1.07.92a6.61,6.61,0,0,0-2.65,1.35,5.08,5.08,0,0,0-2.2,3.9,1.11,1.11,0,0,0,.09.6c.14.26.27.31.93.31a2.72,2.72,0,0,0,2.17-.75,16.25,16.25,0,0,0,3.5-4.94,16.69,16.69,0,0,0,1.31-4.93,12.54,12.54,0,0,0,.18-2.95C358.58,305.06,358.5,305.05,358.44,305.15Z"/><path class="cls-15" d="M358.4,310.73a2.19,2.19,0,0,0,0,.47,13.53,13.53,0,0,1-.7,3.5,10.89,10.89,0,0,1-1.89,3.15,1.49,1.49,0,0,1-.51.2,5.24,5.24,0,0,0-1.67.68,7.2,7.2,0,0,0-3,3.47,2.62,2.62,0,0,0,.08,1.89l.11.12h.69a2.7,2.7,0,0,0,2.17-.69,15.2,15.2,0,0,0,2.94-4A11.47,11.47,0,0,0,358,316a18.46,18.46,0,0,0,.63-5.36C358.54,310.48,358.45,310.51,358.4,310.73Z"/><path class="cls-15" d="M358.49,315.82a5.53,5.53,0,0,0-.2,1.31,10.78,10.78,0,0,1-.94,3.63,16.29,16.29,0,0,1-1.48,2.47,1.23,1.23,0,0,1-.72.28,7.11,7.11,0,0,0-4.19,3.15,4.19,4.19,0,0,0-.54,2.15c0,.46.11.63.37.76a2.72,2.72,0,0,0,1.9-.13c1.15-.5,2.49-2.07,3.88-4.55a14.61,14.61,0,0,0,1.77-5.05,19.36,19.36,0,0,0,.27-2.94C358.63,315.91,358.59,315.57,358.49,315.82Z"/><path class="cls-15" d="M352.37,335c1.16-.4,2.35-1.65,3.79-4a15.45,15.45,0,0,0,2.28-6.44,20.71,20.71,0,0,0,.15-3.32c-.06-.13-.15-.06-.19.14s0,.47-.06.8c-.1,2.05-.53,3.26-2.09,5.85-.52.87-.4.78-1.1.86a3.66,3.66,0,0,0-2.38,1.19,8.88,8.88,0,0,0-2.07,2.6,4,4,0,0,0-.27,1.72"/><path class="cls-15" d="M350.54,336.57c2-1.25.46.55,4.5-4.36a18.55,18.55,0,0,0,1.77-3.15c0-.1,0-.14-.1-.08a9.57,9.57,0,0,0-.77,1.16,10.85,10.85,0,0,1-3.77,3.75c-1.17.8-1.35.87-1.74.69"/><line class="cls-14" x1="400.33" y1="370.72" x2="400.33" y2="305.48"/><path class="cls-15" d="M401.52,258.61A14.8,14.8,0,0,0,400,262a18.43,18.43,0,0,0-1,5.05,8.42,8.42,0,0,0,1.17,5.38,2.79,2.79,0,0,0,1,.84,1.16,1.16,0,0,0,.65.14.9.9,0,0,0,.53-.1,1.82,1.82,0,0,0,.81-1.06,4.5,4.5,0,0,0,.07-1.2c0-1.95-.22-2.44-1.78-4.05a10,10,0,0,1-1.22-1.45,4.6,4.6,0,0,1,0-2.44,11.77,11.77,0,0,1,.7-2.31,11.38,11.38,0,0,0,.72-2.05C401.78,258.44,401.71,258.41,401.52,258.61Z"/><path class="cls-15" d="M400.31,306.59a5.25,5.25,0,0,0-1.53-2.43,7.27,7.27,0,0,0-2.42-1.61,4.72,4.72,0,0,0-.53-.11,1.62,1.62,0,0,1-1-.47c-1.32-1.22-2-3.51-2.2-7.59l0-.44.24.83a16.67,16.67,0,0,0,1.31,3.38c1.14,2.27,2.78,4.22,4,4.78a2.37,2.37,0,0,0,1.24.26c.62,0,.79-.06.92-.33s.1-.25.09-.79a2.81,2.81,0,0,0-.12-1,5.8,5.8,0,0,0-1.42-2.26,5.57,5.57,0,0,0-2.06-1.43,5.19,5.19,0,0,0-1.23-.4c-.17,0-.24-.07-.53-.33a5.09,5.09,0,0,1-.58-.65,11.31,11.31,0,0,1-1.43-2.84,29,29,0,0,1-.4-3.95c0-.76,0-1,.1-.66,0,.09.19.64.36,1.22a16.94,16.94,0,0,0,1.52,3.85,11.49,11.49,0,0,0,2.14,2.85,3.69,3.69,0,0,0,2.8,1.31c.67,0,.84-.21.87-.89a3.77,3.77,0,0,0-.58-2.16,6.4,6.4,0,0,0-1.34-1.64,5.86,5.86,0,0,0-2.54-1.44c-.77-.2-.85-.26-1.48-1.18a8.82,8.82,0,0,1-1.78-5.41c-.05-.84-.09-2.17-.06-2.12s.13.37.26.79c1.15,3.58,1.83,5,3.18,6.56a5.68,5.68,0,0,0,2.44,1.91,2.12,2.12,0,0,0,.82.1,1.52,1.52,0,0,0,.72-.08c.29-.14.35-.28.35-1a3.16,3.16,0,0,0-.37-1.59,6.36,6.36,0,0,0-1.59-2.07,5.94,5.94,0,0,0-2.52-1.39c-.77-.2-.87-.28-1.7-1.44a5.73,5.73,0,0,1-1.12-2.2,19.54,19.54,0,0,1-.47-4.35l0-.77.09.28.38,1.2a20.2,20.2,0,0,0,1.57,4,10,10,0,0,0,3.26,3.64,2.64,2.64,0,0,0,1.48.34c.77,0,.81,0,.94-.34a3.62,3.62,0,0,0-.39-2.58,6.89,6.89,0,0,0-4.11-3.17,2.34,2.34,0,0,1-.5-.18,8.19,8.19,0,0,1-1.67-2.05,9.32,9.32,0,0,1-.91-3.64c-.05-.49-.14-2.36-.13-2.72V272l.08.27a23,23,0,0,0,2,5.17,11.27,11.27,0,0,0,1.9,2.57,6.09,6.09,0,0,0,1.94,1.44c.84.38,1.49.28,1.79-.26.09-.17.1-.24.1-.76a2.42,2.42,0,0,0-.13-1,5.5,5.5,0,0,0-.93-1.69,10.32,10.32,0,0,0-1.59-1.5,4.66,4.66,0,0,0-2-1,1.11,1.11,0,0,1-.42-.12,4.69,4.69,0,0,1-1-1.11c-1.25-1.68-1.62-3.1-1.72-6.48a3.2,3.2,0,0,1,0-.93,10.61,10.61,0,0,1,.51,1.58,15.21,15.21,0,0,0,3.1,6,5.4,5.4,0,0,0,2.89,1.93,1.11,1.11,0,0,0,.55,0c.53-.14.74-.47.73-1.16a3.23,3.23,0,0,0-.25-1.3,7.25,7.25,0,0,0-4.45-3.9,1.4,1.4,0,0,1-.89-.55,7.27,7.27,0,0,1-1.52-2.45,13.88,13.88,0,0,1-.71-4.55,5.49,5.49,0,0,0-.13-1.64s-.06.05-.08.14a18.58,18.58,0,0,0-.08,4.08,11.67,11.67,0,0,1,0,2.65,10.85,10.85,0,0,0,0,2.68,11.75,11.75,0,0,1,0,2.79,10.77,10.77,0,0,0,0,2.67,11.19,11.19,0,0,1,0,2.72,11.46,11.46,0,0,0,0,2.75,11.23,11.23,0,0,1,0,2.72,11.3,11.3,0,0,0,0,2.73,10.62,10.62,0,0,1,0,2.65,11.67,11.67,0,0,0,0,2.57,16.94,16.94,0,0,1,.06,1.72,34.55,34.55,0,0,0,.4,5.25,7.75,7.75,0,0,0,.48,2.38c.64,1.86,2.42,3.09,3.43,4.36"/><path class="cls-15" d="M404.71,261c-.06.11,0,.19.16,1.06a9.62,9.62,0,0,1,.35,2.34,15,15,0,0,1-.62,4.56c-.28,1-.28,1,.07,1s.44-.12.68-.7a17.18,17.18,0,0,0,.74-4.18,11.91,11.91,0,0,0-.6-3.66,2,2,0,0,0-.14-.46.55.55,0,0,0-.31-.05C404.81,260.88,404.75,260.89,404.71,261Z"/><path class="cls-15" d="M396.25,261.35c-.08,0-.13.26-.37,1.32a9.94,9.94,0,0,0-.43,3,9.37,9.37,0,0,0,.07,1.37,7.24,7.24,0,0,0,.37,1.58.61.61,0,0,0,.56.13c.26,0,.27-.07.15-.75a15.56,15.56,0,0,1-.26-3.68,6.83,6.83,0,0,1,.43-2.08,6.53,6.53,0,0,0,.22-.7.29.29,0,0,0-.09-.16A.71.71,0,0,0,396.25,261.35Z"/><path class="cls-15" d="M408.71,264.91c0,.1-.09.57-.14,1a10.07,10.07,0,0,1-1.73,5.1l-.76,1.38-.46.06a4.13,4.13,0,0,0-1.3.35,7,7,0,0,0-3.13,2.77,2.66,2.66,0,0,0-.42,1.57c0,1,0,1.26.4,1.42a2.88,2.88,0,0,0,1.82-.2c1.13-.51,2.43-2,3.83-4.48a15,15,0,0,0,1.87-5.68,12.18,12.18,0,0,0,.11-3.5S408.74,264.82,408.71,264.91Z"/><path class="cls-15" d="M408.78,270.23a4.5,4.5,0,0,0-.2,1.17,11,11,0,0,1-.59,2.85c-.5,1.42-1.66,3.32-2.24,3.55h-.05a5.58,5.58,0,0,0-3,1.59,6.29,6.29,0,0,0-1.92,2.76c-.2.71-.08,1.63.24,1.81.09.06.22.07.74.07a2.47,2.47,0,0,0,.95-.1,3.21,3.21,0,0,0,1.19-.7,16.75,16.75,0,0,0,3.68-5.43,16.35,16.35,0,0,0,1.22-5,20.48,20.48,0,0,0,.05-2.5S408.8,270.21,408.78,270.23Z"/><path class="cls-15" d="M408.7,275.76a4.8,4.8,0,0,0-.08.73,10,10,0,0,1-.39,2.33,12.35,12.35,0,0,1-1.61,3.47c-.44.68-.57.78-1.06.92a6.37,6.37,0,0,0-2.65,1.35,5.08,5.08,0,0,0-2.21,3.9,1.09,1.09,0,0,0,.1.6c.14.26.27.31.93.31a2.72,2.72,0,0,0,2.17-.75,15.69,15.69,0,0,0,4.8-9.88,12.16,12.16,0,0,0,.19-2.95C408.85,275.66,408.77,275.65,408.7,275.76Z"/><path class="cls-15" d="M408.67,281.34a2.16,2.16,0,0,0-.05.46,13.45,13.45,0,0,1-.7,3.5,10.75,10.75,0,0,1-1.89,3.15,1.31,1.31,0,0,1-.51.2,5.48,5.48,0,0,0-1.67.68,7.2,7.2,0,0,0-3,3.47,2.57,2.57,0,0,0,.08,1.89l.11.12h.69a2.75,2.75,0,0,0,2.17-.7,15,15,0,0,0,2.94-4,11.53,11.53,0,0,0,1.43-3.44,18.89,18.89,0,0,0,.63-5.37C408.81,281.08,408.72,281.11,408.67,281.34Z"/><path class="cls-15" d="M408.76,286.42a5.64,5.64,0,0,0-.2,1.31,10.68,10.68,0,0,1-.95,3.64,14.79,14.79,0,0,1-1.48,2.47c-.14.14-.28.19-.72.28a7,7,0,0,0-4.19,3.14,4.28,4.28,0,0,0-.53,2.15c0,.46.11.64.37.77a2.73,2.73,0,0,0,1.9-.13c1.15-.5,2.49-2.07,3.88-4.55a14.51,14.51,0,0,0,1.76-5.06,19.38,19.38,0,0,0,.28-2.94C408.9,286.51,408.86,286.17,408.76,286.42Z"/><path class="cls-15" d="M402.64,305.57c1.16-.4,2.35-1.64,3.78-3.94a15.37,15.37,0,0,0,2.29-6.45,20.67,20.67,0,0,0,.15-3.32c-.06-.13-.15-.06-.19.15s-.05.47-.07.79c-.09,2.05-.52,3.27-2.08,5.85-.52.88-.4.78-1.1.86A3.68,3.68,0,0,0,403,300.7a9.39,9.39,0,0,0-2.08,2.6,4,4,0,0,0-.26,1.72"/><path class="cls-15" d="M400.81,307.17c2-1.24.45.56,4.5-4.36a18.16,18.16,0,0,0,1.77-3.15c0-.1,0-.14-.1-.08a8.42,8.42,0,0,0-.77,1.16,10.72,10.72,0,0,1-3.78,3.75c-1.16.81-1.34.88-1.73.7"/><line class="cls-14" x1="358" y1="349.34" x2="358" y2="284.11"/><path class="cls-15" d="M359.19,237.23a14.37,14.37,0,0,0-1.54,3.35,18.43,18.43,0,0,0-.95,5,8.42,8.42,0,0,0,1.17,5.38,2.71,2.71,0,0,0,1,.84,1.16,1.16,0,0,0,.65.14.9.9,0,0,0,.53-.1,1.74,1.74,0,0,0,.8-1.06,3.86,3.86,0,0,0,.08-1.2c0-1.95-.22-2.44-1.78-4a10,10,0,0,1-1.22-1.45,4.6,4.6,0,0,1,0-2.44,11.77,11.77,0,0,1,.7-2.31,11.38,11.38,0,0,0,.72-2C359.45,237.06,359.38,237,359.19,237.23Z"/><path class="cls-15" d="M358,285.21a5.3,5.3,0,0,0-1.53-2.43,7.27,7.27,0,0,0-2.42-1.61,4.72,4.72,0,0,0-.53-.11,1.57,1.57,0,0,1-1-.47c-1.32-1.22-2-3.5-2.21-7.59l0-.43.24.82a16.67,16.67,0,0,0,1.31,3.38c1.14,2.27,2.78,4.23,4,4.78a2.36,2.36,0,0,0,1.23.26c.63,0,.79-.06.93-.33s.09-.25.09-.79a2.72,2.72,0,0,0-.12-1,5.87,5.87,0,0,0-1.42-2.27,5.57,5.57,0,0,0-2.06-1.43,5.11,5.11,0,0,0-1.24-.4c-.17,0-.23-.07-.52-.33a5.09,5.09,0,0,1-.58-.65,11.14,11.14,0,0,1-1.43-2.84,27.46,27.46,0,0,1-.4-3.95c0-.76,0-1,.1-.66l.36,1.22a16.94,16.94,0,0,0,1.52,3.85,11.71,11.71,0,0,0,2.13,2.85,3.72,3.72,0,0,0,2.8,1.31c.68,0,.85-.21.88-.89a3.85,3.85,0,0,0-.58-2.16,6.45,6.45,0,0,0-1.35-1.64,5.87,5.87,0,0,0-2.53-1.44c-.77-.2-.85-.26-1.48-1.18a8.77,8.77,0,0,1-1.78-5.4c-.05-.85-.09-2.18-.07-2.13s.13.38.26.79c1.16,3.59,1.84,5,3.19,6.56a5.72,5.72,0,0,0,2.44,1.92,2.32,2.32,0,0,0,.82.09,1.52,1.52,0,0,0,.72-.08c.29-.14.34-.28.34-1a3,3,0,0,0-.36-1.59,6.36,6.36,0,0,0-1.59-2.07,5.92,5.92,0,0,0-2.53-1.39c-.76-.2-.86-.28-1.69-1.44a5.73,5.73,0,0,1-1.12-2.2,19,19,0,0,1-.47-4.35l0-.77.09.28.38,1.2a19.59,19.59,0,0,0,1.57,4,10,10,0,0,0,3.26,3.64,2.61,2.61,0,0,0,1.47.34c.78,0,.82,0,.95-.34a3.63,3.63,0,0,0-.39-2.58,6.88,6.88,0,0,0-4.12-3.17,2.44,2.44,0,0,1-.49-.18,8.19,8.19,0,0,1-1.67-2.05,9.32,9.32,0,0,1-.91-3.64c-.05-.49-.14-2.36-.13-2.72v-.19l.08.27a23,23,0,0,0,2,5.17,11.27,11.27,0,0,0,1.9,2.57,6.09,6.09,0,0,0,1.94,1.44c.84.38,1.49.28,1.78-.26.1-.17.1-.24.1-.76a2.44,2.44,0,0,0-.12-1,5.84,5.84,0,0,0-.93-1.69,10.32,10.32,0,0,0-1.59-1.5,4.78,4.78,0,0,0-2-1,1.24,1.24,0,0,1-.43-.12,4.92,4.92,0,0,1-1-1.11c-1.24-1.68-1.61-3.1-1.71-6.48a3,3,0,0,1,0-.92,10.6,10.6,0,0,1,.5,1.57,15.47,15.47,0,0,0,3.11,6,5.43,5.43,0,0,0,2.89,1.92,1.11,1.11,0,0,0,.55,0c.53-.14.73-.47.73-1.16a3.26,3.26,0,0,0-.25-1.3,7.24,7.24,0,0,0-4.46-3.9,1.34,1.34,0,0,1-.88-.55,7.27,7.27,0,0,1-1.52-2.45,13.88,13.88,0,0,1-.71-4.55,5.49,5.49,0,0,0-.13-1.64s-.06,0-.08.14a18,18,0,0,0-.08,4.08,11.67,11.67,0,0,1,0,2.65,10.85,10.85,0,0,0,0,2.68,11.75,11.75,0,0,1,0,2.79,10.77,10.77,0,0,0,0,2.67,11.19,11.19,0,0,1,0,2.72,11.46,11.46,0,0,0,0,2.75,11.23,11.23,0,0,1,0,2.72,11.3,11.3,0,0,0,0,2.73,10.7,10.7,0,0,1,0,2.66,11,11,0,0,0,0,2.56,16.94,16.94,0,0,1,.06,1.72,34.55,34.55,0,0,0,.4,5.25,8.13,8.13,0,0,0,.47,2.38c.65,1.86,2.43,3.1,3.44,4.37"/><path class="cls-15" d="M362.38,239.58c-.07.12-.05.19.16,1.06a9.62,9.62,0,0,1,.35,2.34,15,15,0,0,1-.62,4.56c-.28,1.05-.28,1,.07,1s.44-.12.68-.7a17.18,17.18,0,0,0,.74-4.18,11.91,11.91,0,0,0-.6-3.66,2,2,0,0,0-.14-.46.6.6,0,0,0-.32-.05C362.48,239.5,362.42,239.51,362.38,239.58Z"/><path class="cls-15" d="M353.92,240c-.08.05-.14.26-.37,1.32a11.29,11.29,0,0,0-.36,4.35,7.08,7.08,0,0,0,.37,1.57.61.61,0,0,0,.56.13c.26,0,.27-.07.15-.75a15.56,15.56,0,0,1-.26-3.68,6.83,6.83,0,0,1,.43-2.08,6.53,6.53,0,0,0,.22-.7.29.29,0,0,0-.09-.16A.71.71,0,0,0,353.92,240Z"/><path class="cls-15" d="M366.38,243.53c0,.1-.09.57-.14,1a10.14,10.14,0,0,1-1.73,5.1l-.76,1.38-.46.06a4.05,4.05,0,0,0-1.3.35,7,7,0,0,0-3.14,2.77,2.75,2.75,0,0,0-.41,1.57c0,1,0,1.26.4,1.42a2.88,2.88,0,0,0,1.82-.2c1.12-.51,2.43-2,3.83-4.48a15,15,0,0,0,1.87-5.68,11.64,11.64,0,0,0,.1-3.5A.51.51,0,0,0,366.38,243.53Z"/><path class="cls-15" d="M366.45,248.85a4.5,4.5,0,0,0-.2,1.17,11.41,11.41,0,0,1-.59,2.85c-.5,1.42-1.66,3.32-2.24,3.55h-.05a5.54,5.54,0,0,0-3,1.58,6.35,6.35,0,0,0-1.91,2.76c-.2.71-.08,1.63.24,1.82.09.05.22.06.74.06a2.47,2.47,0,0,0,.95-.1,3.21,3.21,0,0,0,1.19-.7,16.75,16.75,0,0,0,3.68-5.43,16.35,16.35,0,0,0,1.22-5,20.48,20.48,0,0,0,0-2.5S366.46,248.83,366.45,248.85Z"/><path class="cls-15" d="M366.37,254.38a4.83,4.83,0,0,0-.08.74,9.88,9.88,0,0,1-.39,2.32,12.35,12.35,0,0,1-1.61,3.47c-.44.68-.57.78-1.06.92a6.31,6.31,0,0,0-2.65,1.35,5.08,5.08,0,0,0-2.21,3.9,1.09,1.09,0,0,0,.1.6c.14.26.27.31.93.31a2.74,2.74,0,0,0,2.17-.75,15.69,15.69,0,0,0,4.8-9.88,12.1,12.1,0,0,0,.19-2.94C366.52,254.29,366.44,254.27,366.37,254.38Z"/><path class="cls-15" d="M366.34,260a2.16,2.16,0,0,0,0,.46,13.45,13.45,0,0,1-.7,3.5,10.75,10.75,0,0,1-1.89,3.15,1.31,1.31,0,0,1-.51.2,5.26,5.26,0,0,0-1.67.69,7.19,7.19,0,0,0-3,3.47,2.59,2.59,0,0,0,.09,1.88l.11.12h.69a2.71,2.71,0,0,0,2.17-.7,14.83,14.83,0,0,0,2.93-4,11.32,11.32,0,0,0,1.44-3.44,18.89,18.89,0,0,0,.63-5.37C366.48,259.7,366.39,259.73,366.34,260Z"/><path class="cls-15" d="M366.42,265a6.66,6.66,0,0,0-.19,1.31,10.62,10.62,0,0,1-1,3.64,14.79,14.79,0,0,1-1.48,2.47c-.14.14-.28.19-.72.28a7,7,0,0,0-4.19,3.14,4.28,4.28,0,0,0-.53,2.15c0,.46.11.64.37.77a2.73,2.73,0,0,0,1.9-.13c1.15-.5,2.49-2.07,3.88-4.55a14.53,14.53,0,0,0,1.76-5.05,19.51,19.51,0,0,0,.28-2.95C366.57,265.13,366.53,264.79,366.42,265Z"/><path class="cls-15" d="M360.3,284.19c1.17-.4,2.36-1.64,3.79-3.94a15.37,15.37,0,0,0,2.29-6.45,19.26,19.26,0,0,0,.14-3.32c0-.12-.14-.06-.18.15s0,.47-.07.8c-.09,2-.52,3.26-2.08,5.84-.53.88-.4.78-1.1.86a3.66,3.66,0,0,0-2.38,1.19,9.39,9.39,0,0,0-2.08,2.6,4,4,0,0,0-.26,1.72"/><path class="cls-15" d="M358.48,285.79c2-1.24.45.56,4.5-4.36a18.3,18.3,0,0,0,1.76-3.14c0-.11,0-.15-.1-.09a10.13,10.13,0,0,0-.76,1.16,10.74,10.74,0,0,1-3.78,3.76c-1.16.8-1.34.87-1.73.69"/><line class="cls-8" x1="302.46" y1="440.5" x2="303.79" y2="304.21"/><line class="cls-8" x1="439.41" y1="237.06" x2="304.48" y2="303.87"/><line class="cls-8" x1="167.53" y1="236.06" x2="303.79" y2="304.21"/></svg>