<svg id="visual" viewBox="0 0 960 540" width="960" height="540" xmlns="http://www.w3.org/2000/svg" xmlns:xlink="http://www.w3.org/1999/xlink" version="1.1"><path d="M0 71L87 28L175 33L262 39L349 33L436 44L524 66L611 50L698 66L785 44L873 55L960 39L960 0L873 0L785 0L698 0L611 0L524 0L436 0L349 0L262 0L175 0L87 0L0 0Z" fill="#00cc8e"></path><path d="M0 98L87 87L175 93L262 82L349 66L436 87L524 98L611 71L698 120L785 66L873 93L960 93L960 37L873 53L785 42L698 64L611 48L524 64L436 42L349 31L262 37L175 31L87 26L0 69Z" fill="#00ad86"></path><path d="M0 158L87 158L175 168L262 152L349 98L436 136L524 174L611 109L698 147L785 131L873 168L960 163L960 91L873 91L785 64L698 118L611 69L524 96L436 85L349 64L262 80L175 91L87 85L0 96Z" fill="#008f79"></path><path d="M0 282L87 320L175 309L262 282L349 255L436 287L524 309L611 255L698 320L785 320L873 282L960 309L960 161L873 166L785 129L698 145L611 107L524 172L436 134L349 96L262 150L175 166L87 156L0 156Z" fill="#038373"></path><path d="M0 309L87 401L175 395L262 347L349 347L436 374L524 374L611 341L698 357L785 379L873 325L960 352L960 307L873 280L785 318L698 318L611 253L524 307L436 285L349 253L262 280L175 307L87 318L0 280Z" fill="#008f79"></path><path d="M0 471L87 460L175 482L262 503L349 471L436 460L524 449L611 438L698 498L785 465L873 482L960 476L960 350L873 323L785 377L698 355L611 339L524 372L436 372L349 345L262 345L175 393L87 399L0 307Z" fill="#00ad86"></path><path d="M0 541L87 541L175 541L262 541L349 541L436 541L524 541L611 541L698 541L785 541L873 541L960 541L960 474L873 480L785 463L698 496L611 436L524 447L436 458L349 469L262 501L175 480L87 458L0 469Z" fill="#00cc8e"></path></svg>