<?xml version="1.0" encoding="iso-8859-1"?><!-- Generator: Adobe Illustrator 22.1.0, SVG Export Plug-In . SVG Version: 6.00 Build 0)  --><svg xmlns="http://www.w3.org/2000/svg" xmlns:xlink="http://www.w3.org/1999/xlink" viewBox="0 0 100 100" width="500px" height="500px"><g><g><g><circle style="fill:#EE3E54;" cx="13" cy="29" r="2"/></g><g><circle style="fill:#F1BC19;" cx="77" cy="13" r="1"/></g><g><circle style="fill:#FCE0A2;" cx="50" cy="50" r="37"/></g><g><circle style="fill:#F1BC19;" cx="83" cy="15" r="4"/></g><g><circle style="fill:#EE3E54;" cx="87" cy="24" r="2"/></g><g><circle style="fill:#FBCD59;" cx="81" cy="76" r="2"/></g><g><circle style="fill:#FBCD59;" cx="15" cy="63" r="4"/></g><g><circle style="fill:#EE3E54;" cx="25" cy="87" r="2"/></g><g><circle style="fill:#FFFFFF;" cx="18.5" cy="53.5" r="2.5"/></g><g><circle style="fill:#F1BC19;" cx="21" cy="67" r="1"/></g><g><circle style="fill:#FFFFFF;" cx="80" cy="34" r="1"/></g></g></g><g><g><path style="fill:#00A698;" d="M35,72.3c-4.025,0-7.3-3.274-7.3-7.3V35c0-4.025,3.274-7.3,7.3-7.3h30c4.025,0,7.3,3.274,7.3,7.3    v30c0,4.025-3.274,7.3-7.3,7.3H35z"/></g><g><path style="fill:#472B29;" d="M65,28.4c3.639,0,6.6,2.961,6.6,6.6v30c0,3.639-2.961,6.6-6.6,6.6H35c-3.639,0-6.6-2.961-6.6-6.6    V35c0-3.639,2.961-6.6,6.6-6.6H65 M65,27H35c-4.4,0-8,3.6-8,8v30c0,4.4,3.6,8,8,8h30c4.4,0,8-3.6,8-8V35C73,30.6,69.4,27,65,27    L65,27z"/></g></g><g><path style="fill:#472B29;" d="M68.5,47.375c-0.276,0-0.5-0.224-0.5-0.5V43c0-0.276,0.224-0.5,0.5-0.5S69,42.724,69,43v3.875   C69,47.151,68.776,47.375,68.5,47.375z"/></g><g><path style="fill:#472B29;" d="M68.5,40.5c-0.276,0-0.5-0.224-0.5-0.5v-2c0-0.276,0.224-0.5,0.5-0.5S69,37.724,69,38v2   C69,40.276,68.776,40.5,68.5,40.5z"/></g><g><path style="fill:#472B29;" d="M64,69H36c-2.757,0-5-2.243-5-5V36c0-2.757,2.243-5,5-5h25.375c0.276,0,0.5,0.224,0.5,0.5   s-0.224,0.5-0.5,0.5H36c-2.206,0-4,1.794-4,4v28c0,2.206,1.794,4,4,4h28c2.206,0,4-1.794,4-4V49.625c0-0.276,0.224-0.5,0.5-0.5   s0.5,0.224,0.5,0.5V64C69,66.757,66.757,69,64,69z"/></g><g><path style="fill:#FEFDEF;" d="M47.4,59.543c-0.357,0-0.716-0.129-1-0.387l-8.914-8.914c-0.607-0.551-0.651-1.492-0.1-2.099   c0.552-0.605,1.491-0.652,2.099-0.1l7.895,7.988l13.114-13.169c0.596-0.563,1.535-0.538,2.1,0.06c0.564,0.597,0.537,1.536-0.06,2.1   L48.419,59.137C48.134,59.407,47.767,59.543,47.4,59.543z"/><path style="fill:#472B29;" d="M47.4,59.793c-0.433,0-0.848-0.16-1.168-0.452l-8.923-8.923c-0.334-0.303-0.535-0.729-0.557-1.193   c-0.022-0.463,0.138-0.907,0.45-1.25c0.645-0.707,1.744-0.76,2.451-0.116l7.728,7.818l12.937-12.991   c0.341-0.323,0.777-0.523,1.245-0.479c0.464,0.013,0.895,0.206,1.213,0.543s0.487,0.778,0.474,1.241   c-0.013,0.463-0.206,0.894-0.543,1.213l-14.11,14.109C48.269,59.624,47.846,59.793,47.4,59.793z M38.49,47.906   c-0.336,0-0.674,0.136-0.919,0.404c-0.222,0.244-0.335,0.561-0.32,0.891s0.158,0.634,0.402,0.854l8.923,8.924   c0.445,0.403,1.217,0.404,1.67-0.024l14.11-14.109c0.5-0.474,0.522-1.257,0.055-1.752c-0.228-0.24-0.533-0.378-0.863-0.387   c-0.325-0.034-0.643,0.109-0.883,0.337L47.38,56.386l-8.073-8.167C39.077,48.01,38.784,47.906,38.49,47.906z"/></g></svg>